<?xml version="1.0" encoding="utf-8"?>
<!-- Generator: Adobe Illustrator 19.2.1, SVG Export Plug-In . SVG Version: 6.00 Build 0)  -->
<svg version="1.1" xmlns="http://www.w3.org/2000/svg" xmlns:xlink="http://www.w3.org/1999/xlink" x="0px" y="0px"
	 viewBox="0 0 612 792" style="enable-background:new 0 0 612 792;" xml:space="preserve">
<style type="text/css">
	.st0{fill:#292627;}
	.st1{fill:#2A2627;}
	.st2{fill:#D4E08A;}
	.st3{fill:#33ABE1;}
	.st4{fill:#32ABE1;}
	.st5{fill:#D3DF8B;}
	.st6{fill:#FCFCFC;}
	.st7{fill:#D3DF8D;}
	.st8{fill:#CFD98B;}
	.st9{fill:#CDD397;}
	.st10{fill:#CADB9C;}
	.st11{fill:#CFDD92;}
	.st12{fill:#D2E08D;}
	.st13{fill:#CDDD9D;}
	.st14{fill:#CEE09C;}
	.st15{fill:#CFDD9A;}
	.st16{fill:#CCDF9F;}
	.st17{fill:#D4E19A;}
	.st18{fill:#E4EBB6;}
	.st19{fill:#D2E098;}
	.st20{fill:#D2E19E;}
	.st21{fill:#CEDF95;}
	.st22{fill:#D3E08F;}
	.st23{fill:#CEDE9A;}
	.st24{fill:#C6DBA0;}
	.st25{fill:#BFD99E;}
</style>
<g id="Layer_2">
</g>
<g id="Layer_1">
	<g>
		<g>
			<path class="st0" d="M443.4,262.2c-8.2,15.4-10.5,30.9-8.9,47.1c1.6,16,8,30.2,16.6,43.6c2.9,4.5,4.2,10,5.9,15.1
				c4.2,12.4,10,23.8,19.4,33.1c2.8,2.7,5.3,3.5,9.3,2c3.2-1.2,7.1-0.2,10.9,0.5c-5.1,2.6-10.2,5-15.2,7.8
				c-5.3,3-10.1,6.1-12.9,12.3c-3.5,8-8.3,15.4-12.4,23.2c-0.5,1-0.3,2.3-0.4,3.5c1-0.1,2.2,0,3.1-0.4c6.3-2.4,12.5-4.8,18.9-6.8
				c-7.8,5.4-15.6,11-25.5,11.9c-1.1,0.1-2.3,0.2-3.4,0.6c-23,7.7-45.9,15.7-68.9,23.2c-18.8,6.1-30,17.9-32,38.1
				c-0.7,7.7-2.7,15.3-3.9,22c-2.1-0.7-4-1.8-5.9-1.8c-11.6,0.4-23.2,1.2-34.9,1.7c-21.5,0.9-42.3-3-62.3-10.9
				c-19.7-7.7-37.4-19-55.5-30.7c-9.9,6.7-20.7,13.4-23.8,27.3c-1.3,5.8-0.8,7.3,5.1,7.8c16.8,1.6,33.5,3,50.3,4.6
				c2.6,0.3,5.2,1,7.6,2.6c-15.7,2.3-31.4,4.8-47.2,6.6c-5.7,0.6-11.6-0.3-17.3-1.3c-6.8-1.2-11.5-5.7-12.5-12.6
				c-1.4-9.5-1.5-18.7,7.1-25.7c7-5.8,13.6-12,20.5-18.1c-42.9-40.5-63.2-91.3-60.8-150c2-49.7,22-92.7,57.5-127.9
				c41.1-40.6,91.7-56.4,148.4-53.4c57.7,3,101.8,32.3,138.8,75.7c1.4-6.4,2.6-12,4-17.5c0.8-3.2,1.7-6.5,3.3-9.3
				c4.7-8.1,13.4-9,19.3-1.7c3.9,4.9,7.2,10.4,10.2,15.9c11.6,21.2,24.4,41.5,41.8,58.6c1.5,1.5,3.1,3.1,4.8,4.4
				c9.2,7.1,12,16.3,7.7,27c-7.3,18.1-15,36.1-22.6,54.1c-2,4.7-4.4,9.3-6.7,13.9c-1.6,3.2-0.7,5.2,2.3,6.9
				c12.2,7,15.3,14.2,11.2,27.8c-8.9,29.7-21.9,56.8-42.7,80.7c-16.3,18.7-32.7,37.1-50.2,54.6c-5.7,5.7-11.9,11.1-17.8,16.7
				c-4.1,3.9-5.8,8.6-5.3,14.4c0.4,5.3,0.1,10.6-1,15.9c-1.5-6.1-3.2-12.2-4.2-18.3c-0.4-2.5,0.1-5.4,1.2-7.7
				c2.2-4.4,5-8.5,7.7-12.7c3-4.8,5.9-9.5,8.9-14.2c0.9-1.4,1.6-3,2.9-4c15.4-12.8,26.2-29.5,39.1-44.4c11.3-13.1,22-26.7,32.6-40.4
				c2.9-3.7,4.4-8.5,6.4-12.8c4.5-9.7,9.2-19.4,13.4-29.3c4.4-10.2,2.8-16.4-5.6-23.8c-4.5-4-9.7-7.4-13.1-12.2
				c-5.6-7.7-10.2-16.2-14.7-24.6c-14-25.9-27.8-51.9-41.7-77.8C448.4,269.4,446,266.2,443.4,262.2z M466.9,286
				c5.3,12.4,10.6,24.7,15.9,37.1c0.5-0.2,1.1-0.4,1.6-0.6c1.5-6.1,0.3-11.7-3.3-16.9c-2.3-7.9-4.3-15.8-6.9-23.6
				c-2.4-7-5-14.2-8.6-20.7c-3.7-6.6-6.5-14.1-13.2-18.6c-7.3-9.3-13.7-19.2-22.7-27.3c-17.1-15.4-36-27.3-57.2-36.1
				c-22.8-9.4-46.4-15.1-71.1-13.2c-15.1,1.2-30,4.6-45,7.1c-14,5.2-28.8,8.8-39.4,20.6c-1.8-0.2-3.6-0.4-5.4-0.7
				c-24.8,13.8-44,33.9-59.7,57c-14,20.5-23.6,43.4-26.5,68.4c-2.9,25.1-2.9,50.3,3.7,74.9c2.6,9.7,7.2,18.8,10.9,28.2
				c3.6,7.8,6.1,16.3,11,23.2c7.4,10.4,15.7,20.5,25,29.2c10.9,10.3,21.5,21.3,35.5,27.8c2.6,1.7,5.4,3.3,7.9,5.1
				c11.6,8.6,24.2,14.4,38.7,15.6c2,0.4,4,0.9,6,1.3c3,1,5.9,2.6,8.9,2.9c9.2,1,18.5,1.1,27.8,2.1c12.1,1.3,23.9,0.9,35.6-2.9
				c8.1-2.7,8.3-2.3,8.6-10.8c0-1.2,0-2.3-0.1-3.5c0.4-7.9,1.8-15.5,7.4-21.7c3.5-3.8,6.6-7.8,10.1-11.5c7.7-8,18.4-9.9,28.2-13.6
				c5.8-2.1,11.8-3.8,17.8-5.1c10.3-2.2,20.7-4,31-6c1.5,0,3,0.1,4.5,0.1c7.1,0,7.6-0.4,9.2-7.4c0.2-1,0.6-1.9,0.7-2.9
				c2.2-15.6,7.2-29.9,20.6-40.2c-11-7.5-17.8-18.1-23.2-29.8c-3.4-7.2-7.5-14-10.4-21.3c-4.4-11-8.7-22.1-11.7-33.5
				c-2.5-9.4-2.8-19.2-4.3-28.9c-1.3-8.4-0.1-16.1,4-23.5c0.9-1.6,1.6-3.3,2-5.1c2.8-11.7,5.7-14,17.8-14.3c2.7,4.7,5.8,9.3,8,14.2
				C460.4,269.4,463.5,277.8,466.9,286z M511.1,371.8c10.6-22.5,20.6-44.2,31-65.7c2.9-6.1,1.9-10.8-2.2-15.9
				c-19.8-24.6-39.4-49.3-59.1-74c-1.2-1.5-2.4-3-4.2-5.2c-5.1,18.4-10.3,35.6,0.3,52.9c2,3.3,3,7.3,4.6,10.9
				c7.8,18,14.4,36.4,14.5,56.2C496,346,501.5,358.5,511.1,371.8z"/>
			<path class="st1" d="M319.8,642.6c-1.2-18.2-2.4-36.3-3.5-54.6c-11.5,1.8-22.5,3.7-33.5,5c-4.6,0.6-9.3,0.3-13.9-0.3
				c-8.3-1-13-5.7-14.9-13.9c-1.5-6.6-2.5-13.4-4.8-19.7c-2.2-5.7-5.9-10.9-8.9-16.1c0.8,0.3,2.8,0.6,3.9,1.8
				c4.5,5,9.2,9.9,12.8,15.6c2.9,4.6,4.3,10.2,6.4,15.4c1.8,4.4,5.4,5.1,9.5,4.4c8.8-1.5,17.6-3.2,26.5-4.7
				c4.7-0.8,9.4-1.8,14.2-2.5c9.2-1.3,16,4.3,15.6,13.5c-0.4,8.8-2,17.5-3.3,26.2c-1.5,10-3.3,20-5,29.9
				C320.4,642.8,320.1,642.7,319.8,642.6z"/>
			<path class="st2" d="M217,194c10.5-11.8,25.4-15.5,39.4-20.6c-0.1,0.7-0.2,1.3-0.4,2c-2.1,7.3-0.8,8.7,6.9,8
				c3.6-0.3,7.3-0.5,10.9-0.3c1.5,0.1,3.9,0.8,4.2,1.8c1.6,5.1,6.2,6.6,9.9,9.3c-1.5,2.6-1,4.1,2.2,3.9c4.5-0.4,8.2-2.2,9.8-6.8
				c6.3-3.1,10.9,2,16.7,3.5c2-3.5,3.9-7,6.2-10.9c3.2,4,6.1,7.7,9.1,11.4c0.4,2.6,0.7,5.2,1.1,7.8c-3.6,5.6-9.2,7.8-15.2,9.5
				c-2.7,0.8-5.5,1.6-8,2.7c-1.1,0.5-2.6,1.8-2.7,2.9c-0.3,3.4-0.1,6.8-0.1,8.7c5.8,2.2,10.4,4.3,15.2,5.8c6.1,1.9,7.5,6.5,8.7,12
				c0.4,1.8,4.4,3.3,7,4c0.9,0.2,3.9-2.5,3.7-3.4c-1.8-7.6,2.2-13.1,6.2-18.7c1-1.4,0.9-3.5,1.3-5.3c0.2-0.8,0.1-1.9,0.6-2.3
				c6.8-5.7,15.8-7.2,20.9,1.4c1.6,2.6,3,4.9,5.9,3.6c2-0.9,3.6-3.4,4.4-5.5c0.7-1.9,0.2-4.4,0.2-7.4c5.6,5,10.1,9.4,15,13.3
				c6.8,5.5,14.1,10.5,20.9,16c3.9,3.2,3.7,6-0.9,7.9c-5,2.1-10.3,3.5-15.6,4.7c-5.5,1.2-11,1.9-16.6,2.8c2.2,1.5,4.4,1.6,6.4,2.3
				c2.1,0.7,4.8,1.5,5.8,3.1c3,5,5.6,10.1,12,12c-5.9,1.4-10.2,7.8-17.3,3.8c-4.8-2.7-7.7-1.7-9.2,3.7c-1.7,6-5.8,8.5-11,10.3
				c-5.2,1.7-9,5-10.9,10.2c-2.3,6.4-6.4,11.2-12,14.9c-4.1,2.6-8.2,5.1-12.2,7.7c-7.5,4.8-8.9,10.7-3.3,17.5
				c3.6,4.4,3.1,8.5,1.2,12.9c-1.8,4.3-4.1,4.6-6.7,0.7c-2.8-4.1-5.4-8.4-7.8-12.7c-3.3-6-5-7-11.9-6.3c-1.6,0.2-3.2-0.7-4.8-0.7
				c-4.7,0-10.6-1.4-13.9,0.9c-3.5,2.4-6.1,2.4-9.3,1.7c-3.6-0.8-7-2-10.5-3.2c-5-1.7-9.2-0.1-11.6,4.2c-4.9,8.6-10.8,17-8.7,27.8
				c-1,2.8-2,5.5-3.1,8.3c0,0.3,0,0.6,0,0.9c-3.1,4.9-3.5,9.9-1,15.1c0.3,1,0.6,1.9,1,2.9c-5-2.1-9.9-4.1-14.9-6.2
				c-3.7-11-4.7-11.9-14.1-11.7c-2.1-1.3-4.3-2.3-6-4c-0.7-0.6,0.1-2.7,0.2-4.1c7.6,0.5,8.4-0.7,6-10.4c-2.2,0.9-4.2,1.7-6.3,2.5
				c-6.2-10.5-14.2-20.1-15.1-33.1c-0.3-4.3-2.3-8.4-7.3-9.6c-3.8,5.4-3.6,11.3,0.8,17.5c3.5,4.9,4.7,9.7,0.7,15.7
				c-6.6-10.4-13.5-20.2-10-32.9c1.8-6.5,0.8-11.6-3.8-16.5c-1.1-1.2-1.7-3.2-1.8-4.9c-0.8-11.9,0.8-23.2,9.2-32.7
				c1.8-2.1,3.2-4.7,4.2-7.3c2.4-6.5,6.5-10.2,13.6-11.3c5.2-0.8,5.1-2.4,3.6-7.4c-1.1-3.4-1.8-7.8-0.4-10.8c2.8-6,7.1-11.4,10.8-17
				C215.1,204.6,216,199.3,217,194z M304.1,330c0.3,0,0.5,0,0.8,0c0-3,0-5.9,0-8.9c-0.3,0-0.5,0-0.8,0
				C304.1,324.1,304.1,327,304.1,330z M305.7,315.8c-0.1,0-0.3,0-0.4,0c0,0.8,0,1.6,0,2.4c0.1,0,0.3,0,0.4,0
				C305.7,317.4,305.7,316.6,305.7,315.8z M306.7,311.5c-0.3,0.5-0.6,0.8-0.6,1c0.1,0.2,0.5,0.4,0.7,0.5
				C306.8,312.6,306.7,312.1,306.7,311.5z"/>
			<path class="st3" d="M332,195.2c-2.9-3.7-5.9-7.4-9.1-11.4c-2.2,3.9-4.2,7.4-6.2,10.9c-5.8-1.5-10.4-6.6-16.7-3.5
				c-4,1-8,2-12.1,2.9c-3.7-2.6-8.3-4.2-9.9-9.3c-0.3-1-2.7-1.8-4.2-1.8c-3.6-0.2-7.3-0.1-10.9,0.3c-7.7,0.7-9-0.7-6.9-8
				c0.2-0.6,0.2-1.3,0.4-2c15-2.4,29.9-5.9,45-7.1c24.7-2,48.3,3.7,71.1,13.2c21.2,8.8,40.1,20.7,57.2,36.1c9,8.1,15.4,18,22.7,27.3
				c-1.2,1.4-2.4,2.8-3.6,4.2c-12.2,0.3-15,2.7-17.8,14.3c-0.4,1.8-1.1,3.5-2,5.1c-4.2,7.4-5.4,15.1-4,23.5
				c1.5,9.6,1.9,19.5,4.3,28.9c3,11.4,7.3,22.5,11.7,33.5c2.9,7.3,7.1,14.2,10.4,21.3c5.5,11.7,12.3,22.3,23.2,29.8
				c-13.4,10.4-18.4,24.6-20.6,40.2c-0.1,1-0.5,1.9-0.7,2.9c-1.6,7-2.1,7.4-9.2,7.4c-1.5,0-3,0-4.5-0.1c-0.4-2.5,0-5.8-1.4-7.5
				c-4.2-4.9-9.1-9.4-16.3-9c-6.6,0.4-11.9-2.3-16.8-6.2c-3.5-2.8-7.1-5.5-10.9-7.8c-2-1.2-4.7-1.9-6.9-1.7
				c-8.4,0.9-16.2,0.9-23.4-4.9c-1.9-1.5-6.2-1.5-8.7-0.5c-7.8,3.1-15.3,7-23,10.6c-1.3,0.1-2.7,0.1-4,0.2
				c-3.6-0.4-7.3-0.6-10.9-1.3c-3.5-0.7-6-2.7-5.6-6.9c0.6-6,1-12.1,1.5-18.1c0.2-3.1-1.3-4.7-4.3-4.9c-6-0.4-12.1-0.7-18.8-1.1
				c-4.5-7.7,7.2-13.5,4.4-22.3c-4.6,1.5-9.4,2.2-13.3,4.4c-4.4,2.5-7.6,7.5-13.7,4.5c-8.3,3.8-12.7-1.2-16.5-7.4
				c-0.9-2.4-1.8-4.8-2.8-7.2c-2.1-10.8,3.8-19.2,8.7-27.8c2.5-4.3,6.6-5.9,11.6-4.2c3.5,1.2,6.9,2.4,10.5,3.2
				c3.2,0.7,5.8,0.7,9.3-1.7c3.3-2.3,9.1-0.8,13.9-0.9c1.6,0,3.2,0.9,4.8,0.7c6.9-0.7,8.6,0.3,11.9,6.3c2.4,4.4,5,8.6,7.8,12.7
				c2.6,3.9,4.9,3.6,6.7-0.7c1.9-4.5,2.4-8.6-1.2-12.9c-5.6-6.8-4.2-12.7,3.3-17.5c4.1-2.6,8.2-5.1,12.2-7.7
				c5.6-3.6,9.7-8.5,12-14.9c1.9-5.2,5.7-8.5,10.9-10.2c5.3-1.8,9.3-4.3,11-10.3c1.5-5.4,4.4-6.4,9.2-3.7c7.1,4,11.4-2.4,17.3-3.8
				c-6.4-1.9-9-7-12-12c-1-1.6-3.7-2.4-5.8-3.1c-2-0.7-4.2-0.9-6.4-2.3c5.5-0.9,11.1-1.6,16.6-2.8c5.3-1.2,10.7-2.6,15.6-4.7
				c4.6-2,4.8-4.8,0.9-7.9c-6.8-5.5-14-10.5-20.9-16c-4.9-3.9-9.4-8.3-15-13.3c0,3.1,0.6,5.5-0.2,7.4c-0.8,2.2-2.5,4.6-4.4,5.5
				c-2.9,1.3-4.3-1-5.9-3.6c-5.1-8.6-14.1-7.1-20.9-1.4c-0.5,0.4-0.4,1.5-0.6,2.3c-0.4,1.8-0.3,3.9-1.3,5.3c-4,5.6-8,11.1-6.2,18.7
				c0.2,0.9-2.8,3.7-3.7,3.4c-2.6-0.7-6.6-2.1-7-4c-1.2-5.5-2.6-10.1-8.7-12c-4.8-1.5-9.4-3.5-15.2-5.8c0-1.9-0.2-5.3,0.1-8.7
				c0.1-1.1,1.5-2.4,2.7-2.9c2.6-1.1,5.3-1.9,8-2.7c6-1.7,11.6-3.9,15.2-9.5c2.9-1,6.1-1.7,8.7-3.3c1.5-0.9,2.2-3.4,3.2-5.1
				c-2.1-0.8-4.2-2.4-6.2-2.2C336.4,192.6,334.2,194.2,332,195.2z M363.9,388.3c7.1,1.7,13.6,2.7,19.9-1.6c-5.1-5.5-12-4.5-18.7-5.8
				C364.7,383.7,364.3,386,363.9,388.3z M356.2,381.7c-5.4-7-10.7-10.1-19.4-8C343.3,377.1,348.1,381.6,356.2,381.7z"/>
			<path class="st4" d="M210,368c-0.1,1.4-0.8,3.4-0.2,4.1c1.7,1.6,4,2.7,6,4c3.3,5.6,7.9,9.7,14.1,11.7c5,2.1,9.9,4.1,14.9,6.2
				c0.3,0.4,0.7,0.7,1,1.1c3.2,4.2,5.6,1.1,8.1-0.9l0,0c1,0,2-0.1,2.9-0.1c1,0.7,2,1.3,3,2c7.2,7.1,14.4,14.2,26,11.9
				c3,2.2,6.5,4.1,9.1,6.8c3.5,3.7,6.5,8,9.5,12.1c4.3,6.1,11.9,6.2,17.5,10c2,0.4,4,0.8,6,1.2c3.1,2.5,3.3,5.2,0.9,8.4
				c-2.2,2.9-3.9,6.2-6,9.1c-3.7,5-4.6,10.5-3.3,16.5c2.4,10.4,7.8,18.8,16.2,25.5c1.5,1.2,2.8,3.5,3.1,5.4c0.5,4.1,1.9,7.3,6,8.9
				c0,1.2,0.1,2.3,0.1,3.5c-0.3,8.5-0.4,8.2-8.6,10.8c-11.7,3.8-23.5,4.2-35.6,2.9c-9.2-1-18.5-1.2-27.8-2.1c-3-0.3-5.9-1.9-8.9-2.9
				c2-1.8,4.1-3.6,6.1-5.4c-6-3.8-8.9,0.6-12.1,4c-14.5-1.1-27.1-7-38.7-15.6c-2.5-1.9-5.2-3.4-7.9-5.1c3.4-5.2,3.4-10.3,0.6-15.9
				c-1.1-2.2-1-5-1.3-6.8c-2.7-2.8-5.1-5.3-7.5-7.8c-2.2-2.3-3.9-5.3-6.5-6.6c-6.3-3.2-8.7-9.2-12-14.7c-3.1-5.1-3.1-12.3-9.8-15.2
				c-0.8-0.4-0.9-2.4-1.3-3.6c-1.1-3-2.2-5.9-3.4-8.9c-0.3,0.1-0.7,0.3-1,0.4c-1.3,6.7-2.6,13.5-4.1,21.8
				c-4.2-5.1-9.1-8.6-10.5-13.3c-3.1-10.3-4.8-12.1-14.7-9.5c-3.7-9.4-8.3-18.5-10.9-28.2c-6.6-24.6-6.6-49.8-3.7-74.9
				c2.9-25,12.5-47.9,26.5-68.4c15.7-23,34.8-43.2,59.7-57c-1.9,4.4-3.3,8.7,1.5,12.5c0.9,0.7,0.7,2.7,1,4.1
				c-3.7,5.6-8,10.9-10.8,17c-1.4,2.9-0.6,7.4,0.4,10.8c1.6,5,1.6,6.5-3.6,7.4c-7.1,1.1-11.2,4.9-13.6,11.3c-1,2.6-2.4,5.2-4.2,7.3
				c-8.4,9.5-10,20.7-9.2,32.7c0.1,1.7,0.7,3.7,1.8,4.9c4.5,4.8,5.6,10,3.8,16.5c-3.5,12.7,3.4,22.5,10,32.9c4-6,2.8-10.8-0.7-15.7
				c-4.4-6.2-4.5-12.1-0.8-17.5c5,1.2,7,5.3,7.3,9.6c0.9,13,8.9,22.6,15.1,33.1C209.9,362.7,210,365.4,210,368z M139.2,374.4
				c-2.4,7.7-1.5,11.1,3.1,14.6c3.1,2.5,6.6,4.6,9.4,7.4c1.7,1.7,2.5,4.3,3.6,6.5c1,2,1.3,4.6,2.8,6.1c2.6,2.5,5.8,4.2,8.8,6.2
				c6.5-7.6,7.9-7.5,12.2,1.5c2.2,4.5,8.1,6.3,13.2,3.8c-0.6-1.3-0.9-3.1-2-3.9c-5.4-4.4-8.2-10.5-11.9-16.2
				c-4.3-6.7-12.1-11.2-18.8-16.1c-1.7-1.3-5.4-1.5-7.4-0.6c-5.7,2.6-5.4,2.9-8.3-2.8C142.7,378.9,141.1,377.1,139.2,374.4z
				 M276.5,519.4c2.9-4.8,4.8-7.9,6.7-11.1c-0.2-0.4-0.5-0.8-0.7-1.3c-3.5,1.5-7,2.9-10.5,4.4C273.3,513.8,274.6,516.1,276.5,519.4z
				 M184.4,402.8c2.1,0.2,3.4,0.5,4.6,0.4c1.8-0.3,3.6-0.8,5.4-1.4c0.1,0-0.2-1.9-0.5-2c-2.2-0.2-4.5-0.5-6.6-0.2
				C186.4,399.7,185.7,401.3,184.4,402.8z"/>
			<path class="st5" d="M344.9,511.8c-4.1-1.6-5.4-4.8-6-8.9c-0.3-1.9-1.6-4.2-3.1-5.4c-8.4-6.7-13.8-15.1-16.2-25.5
				c-1.4-6-0.5-11.4,3.3-16.5c2.2-2.9,3.9-6.2,6-9.1c2.4-3.2,2.1-5.9-0.9-8.4c-0.1-4.4,3.1-4.8,6.4-5.1c1.8-0.1,3.7-0.5,5.5-0.7
				c0-0.6-0.1-1.2-0.1-1.8c-1.5-0.2-3.1,0-4.4-0.6c-1.3-0.6-2.2-1.9-3.3-2.9c7.6-3.6,15.1-7.5,23-10.6c2.5-1,6.8-1,8.7,0.5
				c7.1,5.8,15,5.8,23.4,4.9c2.2-0.2,4.9,0.5,6.9,1.7c3.8,2.3,7.4,5,10.9,7.8c5,3.9,10.3,6.6,16.8,6.2c7.3-0.5,12.1,4.1,16.3,9
				c1.4,1.7,1,4.9,1.4,7.5c-10.3,2-20.7,3.8-31,6c-6,1.3-12,3-17.8,5.1c-9.8,3.6-20.5,5.5-28.2,13.6c-3.5,3.7-6.7,7.7-10.1,11.5
				C346.7,496.3,345.3,503.9,344.9,511.8z"/>
			<path class="st6" d="M511.1,371.8c-9.6-13.3-15.1-25.8-15.2-40.8c-0.1-19.8-6.7-38.2-14.5-56.2c-1.6-3.6-2.6-7.6-4.6-10.9
				c-10.6-17.3-5.3-34.5-0.3-52.9c1.8,2.3,3,3.8,4.2,5.2c19.7,24.7,39.3,49.4,59.1,74c4.1,5.1,5.2,9.8,2.2,15.9
				C531.7,327.6,521.7,349.3,511.1,371.8z"/>
			<path class="st7" d="M140.1,421.8c9.9-2.6,11.6-0.7,14.7,9.5c1.4,4.6,6.3,8.2,10.5,13.3c1.6-8.3,2.9-15,4.1-21.8
				c0.3-0.1,0.7-0.3,1-0.4c1.1,3,2.3,5.9,3.4,8.9c0.5,1.2,0.5,3.3,1.3,3.6c6.7,2.9,6.7,10.1,9.8,15.2c3.3,5.5,5.7,11.5,12,14.7
				c2.6,1.3,4.3,4.4,6.5,6.6c2.4,2.5,4.8,5,7.5,7.8c0.3,1.8,0.2,4.6,1.3,6.8c2.8,5.6,2.8,10.7-0.6,15.9c-14-6.4-24.6-17.5-35.5-27.8
				c-9.3-8.8-17.6-18.8-25-29.2C146.2,438.1,143.7,429.5,140.1,421.8z"/>
			<path class="st8" d="M448.7,247.1c1.2-1.4,2.4-2.8,3.6-4.2c6.8,4.5,9.6,11.9,13.2,18.6c3.6,6.5,6.2,13.6,8.6,20.7
				c2.7,7.7,4.7,15.7,6.9,23.6c-0.5,1.2-0.9,2.4-1.7,4.5c-3.3-7.8-6-14.5-9-21.1c-0.6-1.3-2.4-2-3.6-3.1
				c-3.4-8.3-6.5-16.6-10.2-24.7C454.5,256.4,451.4,251.8,448.7,247.1z"/>
			<path class="st9" d="M466.9,286c1.2,1,3,1.8,3.6,3.1c3,6.6,5.7,13.3,9,21.1c0.8-2.1,1.2-3.3,1.7-4.5c3.6,5.2,4.8,10.9,3.3,16.9
				c-0.5,0.2-1.1,0.4-1.6,0.6C477.5,310.8,472.2,298.4,466.9,286z"/>
			<path class="st10" d="M214.1,210c-0.3-1.4-0.1-3.4-1-4.1c-4.8-3.8-3.4-8.1-1.5-12.5c1.8,0.2,3.6,0.4,5.4,0.6
				C216,199.3,215.1,204.6,214.1,210z"/>
			<path class="st11" d="M258.2,522.7c3.2-3.5,6.1-7.9,12.1-4c-2.1,1.8-4.1,3.6-6.1,5.4C262.2,523.5,260.2,523.1,258.2,522.7z"/>
			<path class="st12" d="M260,396c-1-0.7-2-1.3-3-2c0.5-1.8,1-3.6,1.6-6.1c-2.4,0.4-4.6,0.7-6.2,0.9c0.6,2,1.1,3.6,1.6,5.2
				c0,0,0,0,0,0c-2.7,0.3-5.4,0.6-8.1,0.9c-0.3-0.4-0.7-0.7-1-1.1c-0.3-1-0.6-1.9-1-2.9c0.3-5,0.7-10.1,1-15.1c0-0.3,0-0.6,0-0.9
				c1.9-0.3,3.9-0.7,5.8-1c3.8,6.2,8.1,11.3,16.5,7.4c6.1,3,9.4-2,13.7-4.5c3.9-2.3,8.7-3,13.3-4.4c2.8,8.9-9,14.6-4.4,22.3
				c6.8,0.4,12.8,0.7,18.8,1.1c3,0.2,4.5,1.8,4.3,4.9c-0.5,6-0.9,12.1-1.5,18.1c-0.4,4.2,2,6.2,5.6,6.9c3.6,0.7,7.2,0.9,10.9,1.3
				c-2.5,1.3-5,2.6-7.1,3.7c0.8,0,2.5,0.1,4.8,0.3c-1.4,2.2-2.6,3.9-3.7,5.7c-5.6-3.8-13.1-4-17.5-10c-3-4.2-6-8.4-9.5-12.1
				c-2.6-2.7-6-4.6-9.1-6.8c-1.8-0.5-3.5-1-5.6-1.6c1.6-1.7,2.9-3.1,3.7-4.1c-1-4.1-1.9-7.7-3-12.2c-1.5,4.4-2.7,8.1-4.1,12.4
				c-1.9-1.6-3.8-2.5-4.7-4.1c-2.5-4.3-5.5-5.4-9.8-2.7C261.8,396.1,260.9,395.9,260,396z M249.3,383.5c0.3-0.5,0.6-0.8,0.5-1
				c-0.1-0.2-0.5-0.3-0.7-0.5C249.2,382.4,249.3,382.9,249.3,383.5z"/>
			<path class="st13" d="M332,195.2c2.2-1,4.4-2.7,6.7-2.8c2-0.1,4.2,1.4,6.2,2.2c-1,1.8-1.7,4.2-3.2,5.1c-2.6,1.6-5.7,2.2-8.7,3.3
				C332.7,200.5,332.3,197.9,332,195.2z"/>
			<path class="st14" d="M230,387.7c-6.3-2-10.9-6.1-14.1-11.7C225.4,375.9,226.4,376.7,230,387.7z"/>
			<path class="st15" d="M210,368c-0.1-2.6-0.2-5.2-0.2-7.9c2.1-0.8,4.1-1.6,6.3-2.5C218.5,367.3,217.6,368.5,210,368z"/>
			<path class="st16" d="M288,194.1c4-1,8-2,12.1-2.9c-1.6,4.6-5.3,6.4-9.8,6.8C286.9,198.3,286.5,196.7,288,194.1z"/>
			<path class="st17" d="M245,375.9c-0.3,5-0.7,10.1-1,15.1C241.5,385.8,241.9,380.8,245,375.9z"/>
			<path class="st17" d="M250.8,374c-1.9,0.3-3.9,0.7-5.8,1c1-2.8,2-5.5,3.1-8.3C249,369.2,249.9,371.6,250.8,374z"/>
			<path class="st18" d="M304.1,330c0-3,0-5.9,0-8.9c0.3,0,0.5,0,0.8,0c0,3,0,5.9,0,8.9C304.7,330,304.4,330,304.1,330z"/>
			<path class="st18" d="M305.7,315.8c0,0.8,0,1.6,0,2.4c-0.1,0-0.3,0-0.4,0c0-0.8,0-1.6,0-2.4C305.4,315.8,305.6,315.8,305.7,315.8
				z"/>
			<path class="st18" d="M306.7,311.5c0.1,0.7,0.1,1.1,0.2,1.5c-0.3-0.2-0.7-0.3-0.7-0.5C306,312.3,306.4,312,306.7,311.5z"/>
			<path class="st19" d="M363.9,388.3c0.4-2.3,0.7-4.6,1.2-7.5c6.7,1.3,13.5,0.3,18.7,5.8C377.6,391,371,390,363.9,388.3z"/>
			<path class="st20" d="M322,436.8c1.1-1.7,2.3-3.5,3.7-5.7c-2.3-0.1-4-0.2-4.8-0.3c2-1.1,4.6-2.4,7.1-3.7c1.3-0.1,2.7-0.1,4-0.2
				c1.1,1,2,2.3,3.3,2.9c1.3,0.6,2.9,0.4,4.4,0.6c0,0.6,0.1,1.2,0.1,1.8c-1.8,0.2-3.7,0.6-5.5,0.7c-3.3,0.3-6.4,0.6-6.4,5.1
				C326,437.7,324,437.2,322,436.8z"/>
			<path class="st21" d="M356.2,381.7c-8.1-0.1-12.9-4.6-19.4-8C345.5,371.6,350.8,374.7,356.2,381.7z"/>
			<path class="st22" d="M139.2,374.4c1.9,2.7,3.5,4.5,4.6,6.5c2.9,5.7,2.6,5.4,8.3,2.8c2-0.9,5.7-0.7,7.4,0.6
				c6.7,4.9,14.4,9.5,18.8,16.1c3.7,5.7,6.5,11.8,11.9,16.2c1,0.9,1.3,2.6,2,3.9c-5.1,2.5-11.1,0.7-13.2-3.8
				c-4.3-9-5.7-9.1-12.2-1.5c-2.9-2-6.2-3.8-8.8-6.2c-1.5-1.4-1.8-4-2.8-6.1c-1.1-2.2-1.9-4.8-3.6-6.5c-2.8-2.8-6.2-5-9.4-7.4
				C137.7,385.5,136.8,382.1,139.2,374.4z"/>
			<path class="st23" d="M260,396c0.8-0.1,1.8,0.1,2.4-0.3c4.3-2.7,7.3-1.6,9.8,2.7c0.9,1.5,2.8,2.5,4.7,4.1c1.4-4.4,2.6-8,4.1-12.4
				c1.1,4.6,2,8.1,3,12.2c-0.8,0.9-2.1,2.3-3.7,4.1c2.1,0.6,3.8,1.1,5.6,1.6C274.5,410.2,267.3,403.1,260,396z"/>
			<path class="st24" d="M276.5,519.4c-1.9-3.3-3.2-5.6-4.4-8c3.5-1.5,7-2.9,10.5-4.4c0.2,0.4,0.5,0.8,0.7,1.3
				C281.3,511.5,279.4,514.6,276.5,519.4z"/>
			<path class="st25" d="M184.4,402.8c1.3-1.5,2-3.1,2.9-3.2c2.2-0.3,4.4,0,6.6,0.2c0.2,0,0.5,1.9,0.5,2c-1.8,0.6-3.5,1.2-5.4,1.4
				C187.8,403.3,186.6,403,184.4,402.8z"/>
			<path class="st17" d="M254.1,394.1c-0.5-1.6-1-3.2-1.6-5.2c1.6-0.2,3.8-0.6,6.2-0.9c-0.7,2.5-1.2,4.3-1.6,6.1
				C256,394,255,394,254.1,394.1z"/>
			<path class="st17" d="M246,395c2.7-0.3,5.4-0.6,8.1-0.9C251.6,396.1,249.2,399.2,246,395z"/>
			<path class="st17" d="M249.3,383.5c-0.1-0.7-0.1-1.1-0.2-1.5c0.3,0.2,0.6,0.3,0.7,0.5C249.9,382.7,249.6,383,249.3,383.5z"/>
		</g>
	</g>
	<path d="M224.7,539.7c0,0,12,1.5,15.5,3.5c3,1.1,3,1.1,3,1.1s-9-5.4-23.2-6.8C224.7,539.7,224.7,539.7,224.7,539.7z"/>
</g>
<g id="Layer_3">
</g>
</svg>
