<svg id="Layer_3" data-name="Layer 3" xmlns="http://www.w3.org/2000/svg" viewBox="0 0 438.08 486.06"><defs><style>.cls-1{fill:#2d2a2b;}.cls-2{fill:#d3df8a;}.cls-3{fill:#fefefe;}.cls-4{fill:#34abe0;}</style></defs><title>globe</title><path class="cls-1" d="M298.66,649.84l-3.38-52.72c-10.23,1.53-20,3.24-29.83,4.35a85.07,85.07,0,0,1-16.93.27c-8.66-.77-13.41-5.34-15.5-13.85-1.42-5.81-2.16-11.87-4.27-17.41a50.46,50.46,0,0,0-8.47-15c-2.18-2.53-6.74-3.26-10.37-4.23-11-2.9-21.77-.18-32.63,1.21-12.35,1.58-24.63,4.3-37.22,1.65-8.18-1.72-12.19-5.41-13.59-13.72-1.79-10.55.08-19.69,9.26-26.68,6.34-4.83,12-10.5,18.43-16.15-46.49-44.44-66.09-98.9-59.83-162.43,4.92-49.9,28.54-90.14,65.23-123.72,61.79-56.56,193.89-75.29,278.44,30,1.37-5.65,2.53-10.88,3.93-16.06a50,50,0,0,1,3.35-9.87c4.4-8.53,13.61-9.51,19.43-1.87a143.48,143.48,0,0,1,10.72,16.8c11.12,19.79,23.06,39,39.1,55.26,2.68,2.73,5.55,5.27,8.4,7.84,8.09,7.29,10.49,15.15,6.36,25.15-9.12,22.11-18.62,44.06-28.15,66-2.83,6.51-3,6.89,3,10.75,10.72,7,13,13.49,9.27,26.47-9.64,33.1-25.21,62.93-49.06,88.07q-30.08,31.71-60.61,63c-4.49,4.62-6.76,9.62-6.37,16.07,0.45,7.52.54,15.07,0.73,22.6a4,4,0,0,1-.62,2.37c-6.4,8.37-11.69,18.15-19.67,24.58-6.56,5.28-16.23,6.9-24.71,9.54-13.05,4.07-26.6,3.41-40,3.13C308.44,651.11,303.85,650.35,298.66,649.84Zm-55-116.74c3.45,1,6.84,2.43,10.36,2.9,6.4,0.87,12.89,1.1,19.33,1.72,13.42,1.29,26.8,2.11,40-1.85,10.78-3.23,10.95-3.37,10.5-14.92,0.6-3.59.56-7.45,1.92-10.73,6.28-15.19,16.69-26.3,32.4-32.3,19.63-7.49,40.14-11.2,60.63-15.08,1,0,2,.13,3,0.14,8.33,0.08,9.18-.58,11-8.78,1-4.69,1.77-9.44,3-14.09a52,52,0,0,1,17.81-27.84A71.36,71.36,0,0,1,433,387.59c-14.47-27.48-26.48-55.76-28.83-87.24-0.64-8.54-.72-16.93,3.72-24.73a30.74,30.74,0,0,0,2.44-6.49c3.18-10.72,6.13-12.94,17.48-13L462.27,332c1.38-1.59,2-3.21,1.67-4.58-1.5-5.85-3.38-11.59-4.94-17.42-4.51-16.82-9.7-33.4-19-48.31-2.31-3.7-5.75-6.7-8.68-10-8.21-9.78-15.46-20.59-24.8-29.13-22.9-20.93-50-34.72-79.93-42.93a137.3,137.3,0,0,0-60-2.84q-15.74,2.67-31.47,5.38c-10.8,4.79-21.82,9.17-32.31,14.57-4.3,2.22-7.53,6.48-13.09,5.92a38.84,38.84,0,0,0-3.53,1.81c-37.4,24.13-63.53,57.19-77,99.61-7,21.89-7.62,44.66-6.28,67.56a150.08,150.08,0,0,0,16.14,59c6.87,22,21.41,38.64,37.56,54.12,10.4,10,20.6,20.32,34.16,26.23,2.3,1.59,4.64,3.14,6.91,4.78,11.82,8.6,24.6,14.83,39.44,16Zm79.51,13.76c-4-.31-6.93-0.82-9.86-0.72-10,.34-20,1.49-29.94,1.2-12.59-.36-25.33-0.78-37.67-3-26.74-4.83-50-18-72.51-32.61-9.13-5.9-9.21-6.05-17.91.74-6.77,5.28-12.58,11.4-14.76,20.14-1.75,7-.52,8.79,6.61,9.24,2,0.13,4,.24,6,0.4,17.73,1.45,35.49,2.56,53.15,4.56,5.9,0.67,13.62,1.88,16.89,5.83,7.7,9.29,15.75,18.9,18.81,31.26,1.22,4.94,5,6.43,9.63,5.63q20.13-3.43,40.23-7c10.15-1.82,17.29,4.36,16.09,14.47-1.27,10.71-3,21.36-4.57,32-0.84,5.82-1.69,11.64-2.53,17.43,4.83,0.49,8.93,1,13.06,1.29,12.83,0.82,25.67.15,38-3.22,11.28-3.07,24-4.32,30.14-16.92,0.76-1.56,2.8-2.45,3.76-4,2.77-4.37,6.8-8.66,7.56-13.41,1.11-7,.28-14.51-0.6-21.68a22,22,0,0,1,3.54-15.11c8.41-13.31,17.19-26.11,28.25-37.69,15.46-16.18,29.08-34.15,43.27-51.53,6.61-8.09,13.78-16,18.84-25,6.93-12.39,12.32-25.68,17.95-38.76,4.52-10.51,2.73-17.66-6.49-24.46-8.94-6.6-15.37-15-20.54-24.61Q456,331.25,434.39,291.16c-3.65-6.75-7.61-13.35-12-21-2.12,5.05-4,8.76-5.27,12.67-8.28,25.61-4.21,49.7,8.83,72.82A139.41,139.41,0,0,1,435,375.37c4.74,12.7,10.14,24.88,20.05,34.57a9.29,9.29,0,0,0,9.48,2.61c2.72-.63,5.64-0.42,8.47-0.59-8.57,6.78-19.82,9.4-24.95,19.47-4.66,9.15-10.63,17.79-14,27.54l1.46,1,15-5.31c-0.19,1.41-.72,2.12-1.41,2.36q-11.62,4.1-23.29,8.07C403,472.8,380,480.37,357.18,488.24c-16.1,5.55-26.81,16.24-30,33.45C325.67,530.14,324.51,538.67,323.22,546.86ZM455.48,219.62c-1.32,5-2.46,8.94-3.41,12.95-2.86,12-4.11,23.88,1.1,35.59,2.75,6.19,5.6,12.34,8.33,18.54,8.23,18.68,13.2,38,13.75,58.63,0.35,13.21,6.72,24.57,15,35.58,0.83-1.82,1.35-3,1.9-4.14,9.19-19.45,18.12-39,27.71-58.27,4.12-8.26,3.29-14.77-2.57-21.79-12.15-14.55-23.77-29.53-35.6-44.34Z" transform="translate(-93.21 -165.63)"/><path class="cls-2" d="M189.74,202.67c5.55,0.56,8.79-3.7,13.09-5.92,10.48-5.41,21.5-9.78,32.3-14.57-0.11,1-.14,2-0.34,3-1.32,6.46-.7,7.2,6,7.06,3.33-.07,6.66-0.08,10-0.22s5.51,0.8,7.3,3.93c3.19,5.56,8.18,7.57,14.18,5.64,7.45-2.39,14.55-3,21.46,1.43a6.06,6.06,0,0,0,2,.4L302,193.17c2.34,2.83,4.32,5,6.06,7.41s3.57,2.91,6.72,1.82c2.64-.92,5.95.09,9,0.24l0.69,2.55c-2.66,1.9-5.25,3.92-8,5.66-1.36.86-3.63,0.76-4.49,1.87-5,6.45-12.4,8.05-19.5,10.34-3.62,1.16-6.39,2.43-6.62,7.34s1.85,6.79,6,8c3,0.85,5.85,2.44,8.87,3.32,4.48,1.29,7,4.26,8.26,8.54,0.38,1.28.38,3.11,1.24,3.71a24.15,24.15,0,0,0,7.28,3.5c0.64,0.17,3-2.44,2.83-3.39-2.17-10.22,7.81-16.3,8.49-25.48,0-.5.86-1,1.37-1.4,6.68-5.73,14.16-4.76,19.5,2.22,1.24,1.62,4.33,3.9,5.08,3.45a16,16,0,0,0,5.19-6.06c0.8-1.49.41-3.61,0.61-6.12,4.39,3.92,8,7.42,11.85,10.52,7.28,5.82,14.81,11.33,22.12,17.11,5.92,4.67,5.58,7.47-1.44,9.77-6.14,2-12.48,3.43-18.77,5-3.19.78-6.46,1.24-9.69,1.84L364,266.39c12.6-1.25,13,12.41,22.11,15.68-6.23,4.06-11.78,7-18.69,3.13-2.6-1.46-5.48-.06-6.28,3.07-1.72,6.77-6.49,10.14-12.62,12.29a15.72,15.72,0,0,0-9.91,9.86,30.32,30.32,0,0,1-13.4,15.6c-3.42,2.06-6.77,4.25-10.09,6.46-8.43,5.61-9.42,9.9-3.78,18.09a11.75,11.75,0,0,1,1,12.68c-2,4.27-4,4.55-6.7.57-3.07-4.55-5.53-9.52-8.76-13.94-1.53-2.09-4.05-4.31-6.43-4.73A106.27,106.27,0,0,0,273.58,344c-2.23,0-4.46,1-6.72,1.37-3.34.48-6.77,1.28-10.06,1s-6.7-1.88-10-2.87c-3.94-1.17-7.71-.39-9.73,3.09-3.57,6.15-7.28,12.43-9.41,19.14-2.68,8.43.94,16,6.47,22.47,1.11,1.3,3.1,2.77,4.6,2.67,6.52-.41,13.35,1.41,19.25-3.66,4.27-3.67,9.78-5.11,16.85-5.4-1.24,3.8-2.07,6.72-3.15,9.54-0.77,2-2.09,3.8-2.83,5.81-1.72,4.68-.46,6.52,4.45,6.82s9.62,0.64,14.44.86c3.47,0.15,4.61,2,4.38,5.25-0.42,6-1,11.95-1,17.92,0,1.82,1.22,4.85,2.53,5.26,6.58,2,13.32,4.36,20.27,1.14,6.48-3,12.95-6,19.47-9a10.3,10.3,0,0,1,10.84,1,25.67,25.67,0,0,0,19,4.37,17.19,17.19,0,0,1,13.48,3.61c3.06,2.3,5.9,5.09,9.3,6.69,4.53,2.14,9.42,4.35,14.29,4.74,10.36,0.82,17.34,6.61,18.61,17-20.49,3.88-41,7.59-60.63,15.08-15.71,6-26.12,17.1-32.4,32.3-1.36,3.28-1.32,7.14-1.92,10.73-1.94-2.3-4.06-4.48-5.76-6.94-1.92-2.77-2.92-6.37-5.27-8.62-6.91-6.64-12-14.23-14.23-23.56-1.4-5.86-1-11.53,2.65-16.68,2.3-3.26,4.52-6.59,6.58-10,2.62-4.33,1.3-6.82-3.55-8.39-10.18-3.3-19.83-7.17-26-17.11-2.69-4.35-7.41-7.5-11.39-11a5.83,5.83,0,0,0-4.06-1.13c-5.84.65-10.83-1.4-15.33-4.7-3.07-2.25-5.6-5.26-8.74-7.41-1.66-1.13-4.84-2.26-6-1.46-3.53,2.41-6.09,2.69-9.11-.61-1.14-1.25-3.15-1.92-4.89-2.37-11.71-3-20.36-10.62-28.53-18.92a5.49,5.49,0,0,1-1.25-3.94c0.6-5.81-1.24-10.75-4.52-15.42-6-8.52-10.44-17.66-11.48-28.26-0.37-3.81-2.47-6.74-7.19-7.5-0.69,1.81-2,3.58-1.81,5.1,0.64,4.11,1.36,8.41,3.14,12.1,2.42,5,4.55,9.57.39,15-7.44-10.13-13.06-20.3-9.73-33.33a15.6,15.6,0,0,0-3.51-14.94,7.57,7.57,0,0,1-2.12-3.84c-1-11.34.09-22.2,7.1-31.82a74.9,74.9,0,0,0,6.64-11,17.15,17.15,0,0,1,11.86-9.79c6.11-1.5,6.26-1.77,4.7-8.17-1.23-5.06-1.15-9.86,2-14.33A122.69,122.69,0,0,0,191.51,221c0.81-1.47,1.29-4.45.46-5.28C188,211.73,188.83,207.28,189.74,202.67Z" transform="translate(-93.21 -165.63)"/><path class="cls-3" d="M323.22,546.86c1.29-8.19,2.45-16.72,4-25.17,3.15-17.21,13.86-27.9,30-33.45C380,480.37,403,472.8,425.85,465.07q11.68-3.94,23.29-8.07c0.69-.24,1.22-1,1.41-2.36l-15,5.31L434,459c3.41-9.75,9.39-18.38,14-27.54,5.12-10.07,16.38-12.69,24.95-19.47-2.83.17-5.74,0-8.47,0.59a9.29,9.29,0,0,1-9.48-2.61c-9.91-9.69-15.31-21.87-20.05-34.57a139.41,139.41,0,0,0-9.09-19.75c-13-23.11-17.11-47.21-8.83-72.82,1.26-3.91,3.14-7.62,5.27-12.67,4.4,7.69,8.35,14.28,12,21q21.67,40,43.19,80.14c5.17,9.58,11.6,18,20.54,24.61,9.22,6.8,11,13.95,6.49,24.46-5.63,13.09-11,26.37-17.95,38.76-5.06,9-12.22,16.95-18.84,25-14.2,17.37-27.81,35.34-43.27,51.53-11.06,11.57-19.84,24.38-28.25,37.69a22,22,0,0,0-3.54,15.11c0.88,7.18,1.71,14.65.6,21.68-0.75,4.76-4.79,9-7.56,13.41-1,1.51-3,2.41-3.76,4-6.17,12.6-18.86,13.85-30.14,16.92-12.36,3.37-25.2,4-38,3.22-4.13-.26-8.24-0.8-13.06-1.29,0.84-5.79,1.69-11.61,2.53-17.43,1.55-10.68,3.3-21.33,4.57-32,1.2-10.11-5.94-16.29-16.09-14.47q-20.1,3.6-40.23,7c-4.68.8-8.41-.7-9.63-5.63-3.05-12.36-11.1-22-18.81-31.26-3.28-4-11-5.16-16.89-5.83-17.66-2-35.43-3.11-53.15-4.56-2-.16-4-0.28-6-0.4-7.13-.45-8.36-2.24-6.61-9.24,2.18-8.74,8-14.85,14.76-20.14,8.7-6.79,8.79-6.65,17.91-.74,22.51,14.57,45.78,27.78,72.51,32.61,12.34,2.23,25.09,2.65,37.67,3,10,0.28,20-.87,29.94-1.2C316.29,546,319.25,546.55,323.22,546.86Z" transform="translate(-93.21 -165.63)"/><path class="cls-4" d="M418.83,462.84c-1.27-10.38-8.25-16.16-18.61-17-4.88-.39-9.77-2.6-14.29-4.74-3.4-1.6-6.23-4.4-9.3-6.69a17.19,17.19,0,0,0-13.48-3.61,25.67,25.67,0,0,1-19-4.37,10.3,10.3,0,0,0-10.84-1c-6.52,2.92-13,6-19.47,9-6.95,3.23-13.69.91-20.27-1.14-1.31-.41-2.53-3.44-2.53-5.26,0-6,.6-11.95,1-17.92,0.23-3.21-.91-5.1-4.38-5.25-4.82-.21-9.62-0.56-14.44-0.86s-6.17-2.14-4.45-6.82c0.74-2,2.06-3.81,2.83-5.81,1.09-2.82,1.91-5.74,3.15-9.54-7.06.29-12.58,1.73-16.85,5.4-5.9,5.08-12.73,3.25-19.25,3.66-1.49.09-3.48-1.37-4.6-2.67-5.53-6.48-9.15-14-6.47-22.47,2.14-6.71,5.85-13,9.41-19.14,2-3.48,5.78-4.26,9.73-3.09,3.35,1,6.63,2.53,10,2.87s6.72-.47,10.06-1c2.26-.33,4.49-1.4,6.72-1.37a106.27,106.27,0,0,1,16.87,1.12c2.38,0.42,4.91,2.64,6.43,4.73,3.23,4.42,5.7,9.39,8.76,13.94,2.68,4,4.68,3.69,6.7-.57a11.75,11.75,0,0,0-1-12.68c-5.64-8.19-4.65-12.48,3.78-18.09,3.32-2.21,6.67-4.4,10.09-6.46a30.32,30.32,0,0,0,13.4-15.6,15.72,15.72,0,0,1,9.91-9.86c6.13-2.15,10.9-5.52,12.62-12.29,0.8-3.13,3.68-4.53,6.28-3.07,6.91,3.88,12.45.92,18.69-3.13-9.11-3.26-9.51-16.92-22.11-15.68l0.55-1.56c3.23-.6,6.5-1.07,9.69-1.84,6.29-1.53,12.63-2.95,18.77-5,7-2.3,7.36-5.1,1.44-9.77-7.31-5.78-14.84-11.29-22.12-17.11-3.89-3.1-7.46-6.6-11.85-10.52-0.2,2.5.19,4.63-.61,6.12a16,16,0,0,1-5.19,6.06c-0.74.46-3.83-1.82-5.08-3.45-5.33-7-12.81-7.95-19.5-2.22-0.5.43-1.33,0.9-1.37,1.4-0.68,9.18-10.66,15.25-8.49,25.48,0.2,1-2.19,3.56-2.83,3.39a24.15,24.15,0,0,1-7.28-3.5c-0.86-.6-0.86-2.43-1.24-3.71-1.28-4.28-3.79-7.24-8.26-8.54-3-.87-5.84-2.47-8.87-3.32-4.17-1.17-6.25-3-6-8s3-6.17,6.62-7.34c7.1-2.29,14.51-3.9,19.5-10.34,0.86-1.11,3.13-1,4.49-1.87,2.76-1.74,5.35-3.76,8-5.66l-0.69-2.55c-3-.15-6.32-1.16-9-0.24-3.16,1.09-4.89.69-6.72-1.82S304.3,196,302,193.17l-6.25,10.22a6.06,6.06,0,0,1-2-.4c-6.9-4.42-14-3.83-21.46-1.43-6,1.92-11-.08-14.18-5.64-1.79-3.13-4-4.07-7.3-3.93s-6.66.15-10,.22c-6.73.14-7.35-.6-6-7.06,0.2-1,.23-2,0.34-3q15.73-2.69,31.47-5.38a137.3,137.3,0,0,1,60,2.84c29.95,8.2,57,22,79.93,42.93,9.34,8.54,16.6,19.35,24.8,29.13l-3.54,4.42c-11.35.06-14.29,2.28-17.48,13a30.74,30.74,0,0,1-2.44,6.49c-4.44,7.8-4.36,16.19-3.72,24.73,2.35,31.49,14.36,59.76,28.83,87.24a71.36,71.36,0,0,0,20.59,24.69,52,52,0,0,0-17.81,27.84c-1.18,4.65-1.92,9.4-3,14.09-1.79,8.2-2.65,8.85-11,8.78C420.82,463,419.82,462.89,418.83,462.84ZM362.25,396l0.53-1.93c-4.11-1.21-8.16-2.65-12.34-3.57-6.61-1.46-7.76-.22-6.93,6.94C349.94,399.38,356.27,400.08,362.25,396Zm-28.49-4.34,0.71-1.4c-4.2-6.88-9.89-9.31-19.22-7.13Z" transform="translate(-93.21 -165.63)"/><path class="cls-4" d="M189.74,202.67c-0.91,4.61-1.75,9.06,2.23,13,0.83,0.83.35,3.8-.46,5.28a122.69,122.69,0,0,1-7.08,10.87c-3.11,4.47-3.19,9.27-2,14.33,1.56,6.4,1.4,6.68-4.7,8.17a17.15,17.15,0,0,0-11.86,9.79,74.9,74.9,0,0,1-6.64,11c-7,9.62-8.14,20.49-7.1,31.82a7.57,7.57,0,0,0,2.12,3.84,15.6,15.6,0,0,1,3.51,14.94c-3.33,13,2.3,23.2,9.73,33.33,4.16-5.42,2-10-.39-15-1.78-3.69-2.51-8-3.14-12.1-0.24-1.52,1.12-3.29,1.81-5.1,4.72,0.76,6.82,3.68,7.19,7.5,1,10.6,5.5,19.74,11.48,28.26,3.28,4.67,5.12,9.61,4.52,15.42a5.49,5.49,0,0,0,1.25,3.94c8.17,8.29,16.82,15.9,28.53,18.92,1.74,0.45,3.74,1.12,4.89,2.37,3,3.3,5.58,3,9.11.61,1.17-.8,4.36.32,6,1.46,3.13,2.15,5.66,5.15,8.74,7.41,4.5,3.3,9.49,5.36,15.33,4.7a5.83,5.83,0,0,1,4.06,1.13c4,3.48,8.7,6.62,11.39,11,6.14,9.94,15.8,13.8,26,17.11,4.85,1.57,6.17,4.06,3.55,8.39-2.06,3.41-4.29,6.74-6.58,10-3.63,5.16-4.05,10.82-2.65,16.68,2.23,9.34,7.32,16.93,14.23,23.56,2.35,2.25,3.35,5.85,5.27,8.62,1.7,2.46,3.82,4.64,5.76,6.94,0.44,11.55.28,11.69-10.5,14.92-13.19,4-26.57,3.13-40,1.85-6.44-.62-12.93-0.85-19.33-1.72-3.52-.48-6.91-1.9-10.35-2.9l5.84-4.79c-5.83-3.37-7.13-2.92-12.44,3.45-14.84-1.14-27.62-7.36-39.44-16-2.26-1.65-4.6-3.19-6.91-4.78,0.76-3.34,2.62-6.89,2-10-1.26-6.67-2.32-13.6-8.07-18.65s-12.63-10-16.31-16.52c-6.18-10.94-14-21-18.49-32.92a6.51,6.51,0,0,0-1.56-1.35l-4.29,20.7-1.5.32c-3.08-4.63-6.91-8.95-9.06-14-3.85-9-4.85-10-14.48-8a150.08,150.08,0,0,1-16.14-59c-1.33-22.89-.68-45.67,6.28-67.56,13.5-42.43,39.63-75.48,77-99.61A38.84,38.84,0,0,1,189.74,202.67Zm-71.12,181c-3,6.86-2.16,10.83,2.87,14.69S132.25,405.4,134,412c1.69,6.33,6.45,9.28,11.66,12a10.18,10.18,0,0,0,1.38-.9c6.18-5.77,6.17-5.78,10.41,1.78a18.18,18.18,0,0,0,1.28,2.13c3,4,7.63,4.74,12.57,1.73-3-3.92-6.58-7.5-8.9-11.75-5.11-9.35-12.51-16.2-21.15-22.11-3.93-2.69-7.64-3.9-12-1.51-2.71,1.49-4.21.33-5.55-2.11S120.5,386.4,118.62,383.62Zm137,145,6.85-11.6-1.28-.84c-2.76,1.07-5.53,2.12-8.27,3.24a11,11,0,0,0-1.82,1.27ZM173.36,411.07c-4.79-4.11-7.27-3.55-9.2,1.23Z" transform="translate(-93.21 -165.63)"/><path class="cls-3" d="M455.48,219.62l26.15,32.73c11.83,14.81,23.46,29.79,35.6,44.34,5.86,7,6.69,13.53,2.57,21.79-9.59,19.25-18.52,38.83-27.71,58.27-0.55,1.15-1.07,2.32-1.9,4.14-8.23-11-14.6-22.37-15-35.58-0.55-20.61-5.51-39.94-13.75-58.63-2.73-6.2-5.58-12.34-8.33-18.54-5.2-11.71-4-23.64-1.1-35.59C453,228.56,454.16,224.59,455.48,219.62Z" transform="translate(-93.21 -165.63)"/><path class="cls-2" d="M119,430.66c9.63-2,10.63-1,14.48,8,2.15,5,6,9.34,9.06,14l1.5-.32,4.29-20.7a6.51,6.51,0,0,1,1.56,1.35c4.47,11.91,12.31,22,18.49,32.92,3.68,6.51,10.48,11.4,16.31,16.52s6.81,12,8.07,18.65c0.59,3.09-1.28,6.64-2,10-13.56-5.92-23.76-16.26-34.16-26.23C140.45,469.3,125.9,452.62,119,430.66Z" transform="translate(-93.21 -165.63)"/><path class="cls-2" d="M427.77,256.11l3.54-4.42c2.92,3.32,6.37,6.32,8.68,10,9.29,14.9,14.48,31.48,19,48.31,1.56,5.83,3.45,11.58,4.94,17.42,0.35,1.37-.29,3-1.67,4.58Z" transform="translate(-93.21 -165.63)"/><path class="cls-2" d="M237.1,531.76c5.31-6.37,6.61-6.83,12.44-3.45l-5.84,4.79Z" transform="translate(-93.21 -165.63)"/><path class="cls-2" d="M362.25,396c-6,4.07-12.31,3.36-18.73,1.44-0.83-7.16.32-8.4,6.93-6.94,4.17,0.92,8.23,2.36,12.34,3.57Z" transform="translate(-93.21 -165.63)"/><path class="cls-2" d="M333.75,391.68l-18.51-8.53c9.33-2.19,15,.25,19.22,7.13Z" transform="translate(-93.21 -165.63)"/><path class="cls-2" d="M118.62,383.62c1.88,2.78,3.68,5.1,5.09,7.64s2.84,3.6,5.55,2.11c4.36-2.39,8.06-1.18,12,1.51,8.64,5.91,16,12.76,21.15,22.11,2.32,4.26,5.88,7.84,8.9,11.75-4.94,3-9.55,2.26-12.57-1.73a18.18,18.18,0,0,1-1.28-2.13c-4.23-7.55-4.23-7.55-10.41-1.78a10.18,10.18,0,0,1-1.38.9c-5.21-2.7-10-5.65-11.66-12-1.77-6.63-7.53-9.87-12.53-13.71S115.57,390.48,118.62,383.62Z" transform="translate(-93.21 -165.63)"/><path class="cls-2" d="M255.58,528.6l-4.52-7.92a11,11,0,0,1,1.82-1.27c2.74-1.12,5.51-2.17,8.27-3.24l1.28,0.84Z" transform="translate(-93.21 -165.63)"/><path class="cls-2" d="M173.36,411.07l-9.2,1.23C166.1,407.52,168.58,407,173.36,411.07Z" transform="translate(-93.21 -165.63)"/><path class="cls-3" d="M300.82,646.42l-2.15,3.42s16.25,2.68,27.34,1.58a127.4,127.4,0,0,0,21.5-1.26l10.25-2.67s31.75-8.58,34.5-24.33l5.92-9.75-4.51-5.58-29.91,4Z" transform="translate(-93.21 -165.63)"/></svg>