<svg id="Layer_1" data-name="Layer 1" xmlns="http://www.w3.org/2000/svg" viewBox="0 0 500 492"><defs><style>.cls-1{fill:#0c0d0d;}.cls-2{fill:#44c79b;}.cls-3{fill:#f53496;}.cls-4{fill:#43c89b;}.cls-5{fill:#97f6f4;}.cls-6{fill:#c70343;}.cls-7{fill:#249a72;}.cls-8{fill:#fa3498;}.cls-9{fill:#096335;}.cls-10{fill:#679795;}.cls-11{fill:#aed6b2;}.cls-12{fill:#990649;}.cls-13{fill:#ec9bda;}.cls-14{fill:#0d0c0e;}.cls-15{fill:#0c0b0c;}.cls-16{fill:#07100d;}.cls-17{fill:#0f0709;}.cls-18{fill:#220e12;}.cls-19{fill:#fcfcfc;}.cls-20{fill:#fa3499;}.cls-21{fill:#b30a6b;}.cls-22{fill:#e2e2e1;}.cls-23{fill:#98ca67;}.cls-24{fill:#669834;}.cls-25{fill:#1f4905;}.cls-26{fill:#67fac9;}.cls-27{fill:#caf3e8;}</style></defs><title>phone</title><path class="cls-1" d="M57,509c34.37-64.29,82-118.81,129.49-173.17a952.55,952.55,0,0,0,84.66-112.93c9.16-14.28,19-28.13,28.4-42.25A122.18,122.18,0,0,1,328,151h3c7.13,2.91,14.9,4.82,21.26,8.92,27.56,17.74,54.94,35.79,81.91,54.42,11.57,8,22,17.66,33.41,27,6-6.46,12.35-12.6,17.86-19.44q20.7-25.67,40.68-51.9c2.8-3.65,5.12-3.87,9.1-2.09,9.3,4.18,16.84,10.1,21.78,19.12v4a21.31,21.31,0,0,0-2.07,2.05c-44.39,57.41-88.3,115.2-133.28,172.15C388,407.76,359.5,453.6,330.78,499.44,302.22,545,269.89,588,237.5,630.88c-6,7.94-12.29,8.8-21,6.9-16.76-3.67-32.26-10.3-47.19-18.5-1-.55-2.05-1-3.57-1.81-0.29,1.48-.61,2.66-0.74,3.86-1.22,11.23-7.34,18.36-18,21.67H135a10.16,10.16,0,0,0-2.41-1.33,79.74,79.74,0,0,1-29.47-14.16C91.51,618.85,81.2,609,76.59,594.69c-3.46-10.73-.2-19.76,9.14-26.07,2.4-1.62,5-2.94,7.47-4.37a7.5,7.5,0,0,0-.52-1.24q-17.23-23.81-34.5-47.6A2.57,2.57,0,0,0,57,515v-6ZM351.7,266.23l1.1,1.05h-0.05l31.18,23.88c9.7,6.15,19.72,11.5,31.15,13.86,8.57,1.77,17,4,25.55,6l9,9.55c11-14.24,22.27-28.25,32.83-42.77,5-6.82,5.78-12.81-.8-18-3.32-2.6-5.89-6.13-9.12-8.87-9.1-7.75-18.36-15.31-27.55-22.94a34.33,34.33,0,0,0-3.64-3.25q-39.45-26.48-79-52.84c-4.37-2.9-9.1-5.26-13.67-7.87-5.61-2.68-11.17-5.49-16.88-7.92-0.91-.39-2.92.53-3.76,1.44-9.84,10.78-19.88,21.39-29.19,32.61-8.31,10-7.95,6.22.77,17l34,40.88,1.18,1.11-0.11,0,2,2.09v-0.08l1.06,1.08-0.1-.07,1.34,1.68,1.08,1.09,1.9,2,1,1.05,1.62,1.4,0.31-.23-0.33.19,1,1,0.09-.37-0.12.37,4.1,4-0.07-.06,1.11,1-0.07-.07,1.08,1.06ZM89.91,605l0.72,1.27a77.36,77.36,0,0,0,22.55,21.65l1,0.42,2.46,1.12c10.27,7.27,21.36,8.66,33.38,5.15,5.49-1.6,8-5.08,8.1-10.42,0.19-13-6.34-22.52-15.85-30.49-7.69-8.77-16.57-15.64-28.39-17.83l-2.92-.95L111.1,575c-6.13-1-12.26-2.61-18.4-2.68-7.15-.08-11.55,4.53-11.4,11.08a29.9,29.9,0,0,0,7.63,19.71l0-.05L90,605.09ZM275.08,242l0,0,1.2-2,20.07-29.71c-5.49-7.28-6.62-7.24-10.71-.37-3.32,5.58-6.6,11.19-10,16.69-27.18,43.33-60.49,81.9-93.43,120.79-27.32,32.26-54.49,64.7-80.59,97.95-12.06,15.36-22.24,32.39-31.75,49.5-9,16.25-8.31,17,2,32.27C77.51,535.68,83.89,543.76,90,552c3.54,4.19,7,8.47,10.68,12.51a8.92,8.92,0,0,0,4.56,2.64q36.54,6.91,55.41,38.88c0.83,1.4,1.84,3.12,3.19,3.72,16.22,7.23,32.53,14.28,48.81,21.39,2.39,0.66,4.81,1.22,7.17,2,5.21,1.69,8.89.4,12.35-4.21,13.29-17.71,28.06-34.4,40.31-52.79,27.77-41.7,54.44-84.14,81.43-126.36,26.49-41.45,54.21-82,87.73-118.2,3.63-3.92,2.9-8.24-2.37-11.94-9,10.83-18.56,21.31-27,32.65-20.74,27.94-41,56.28-61.39,84.45-2.77.38-6,1.88-8.22,0.93-7.56-3.28-14.24-2.33-20.71,2.29-2.44,1.74-4.85,3.51-7.29,5.26-7.76,5.58-15.08,7.07-24.28,1.55-25.21-15.11-49.61-31.12-70.22-52.35-2.35-2.42-3.32-4.73-2.44-8,1.21-4.49,2-9.09,3.34-13.53,2.68-8.89,1.05-16.76-5-23.72-2.62-3-5.34-5.89-8.16-9,0.81-1.27,1.56-2.54,2.4-3.75q26.23-37.7,52.44-75.42c4-5.84,7.64-12,11.44-18H274Zm267-63.78c-9.67-8.1-9.64-8.86-17.2,1.66l11,6.21,11.62,11.24c1-4.5,3-8.21,2-10.84C548.26,183.29,544.62,181,542,178.24Zm-7.92,14.65-5.13-3.4c-3.84-1.52-7.73-5.91-11.76-.82-14.51,18.32-28.84,36.78-43.77,55.87l7,7.54,7.24,6.22,5.41,7.82c3.92-5.18,7.74-10,11.28-15,10.67-15,21.44-29.94,31.73-45.2C540.81,199.08,540.33,198.76,534.13,192.89ZM238.81,404.19c16.69,14.86,35,27.38,54.42,38.41a10.2,10.2,0,0,0,7.64.78,166.43,166.43,0,0,0,19.84-8.94c7.38-3.93,14.62-6.23,22.81-2.58,1,0.44,3.3-.3,4-1.23q25.24-33.7,50.23-67.58l36.18-47.34c-62-10.25-100.51-50.07-132.57-100.32a12.11,12.11,0,0,1-.9,2.25q-41.94,59.63-83.87,119.27c-0.64.91-1.12,2.68-.67,3.48,2.18,3.9,4.09,8.25,7.23,11.25,5.65,5.4,6.87,11.53,5.24,18.65-0.86,3.73-2.62,7.34-2.89,11.08-0.29,4-.54,8.83,1.44,11.81C229.85,397.55,234.75,400.58,238.81,404.19Z" transform="translate(-57 -151)"/><path class="cls-2" d="M274.14,243.06c-3.8,6-7.4,12.14-11.44,18q-26.12,37.78-52.44,75.42c-0.84,1.21-1.59,2.48-2.4,3.75,2.82,3.1,5.55,6,8.16,9,6.09,7,7.71,14.83,5,23.72-1.34,4.44-2.13,9-3.34,13.53-0.88,3.26.09,5.57,2.44,8,20.61,21.23,45,37.24,70.22,52.35,9.2,5.51,16.51,4,24.28-1.55,2.43-1.75,4.85-3.52,7.29-5.26,6.47-4.62,13.15-5.57,20.71-2.29,2.19,1,5.45-.55,8.22-0.93l-9.3,13.3c-8.28-10.33-21.49-9.69-27.24,1.65-1.22,2.4-1.15,6.07-.35,8.76,2.12,7.16,8.12,9,14.83,9.26-3.58,5.58-7.08,11.2-10.74,16.72q-23.84,35.94-47.78,71.82c-7.75,11.6-15,23.6-23.71,34.47-10.66,13.34-22.58,25.67-33.95,38.44-16.28-7.1-32.59-14.15-48.81-21.38-1.36-.6-2.36-2.32-3.19-3.72q-18.95-32-55.41-38.88a8.92,8.92,0,0,1-4.56-2.64c-3.7-4-7.14-8.32-10.68-12.51A26,26,0,0,0,88.26,547c-4.43-7.59-8.67-15.33-13.66-22.55-4.73-6.85-3.4-13,.41-19.39,17-28.53,33-57.66,54.48-83.27q24.28-29,48.38-58.12c14.93-18,30.2-35.72,44.63-54.1,16.18-20.61,31.57-41.84,47.37-62.74C271,245.33,272.7,244.3,274.14,243.06ZM209.14,500c4.2-1,8-1.57,11.51-3,5.65-2.26,8.34-6.83,8.41-12.94,0.18-14.81-15.78-30.95-30.53-30.86-13.78.08-21.41,11-16.5,23.81a37.23,37.23,0,0,0,17.55,19.71C202.54,498.32,206,498.94,209.14,500Zm-52.31,74.41c3-.76,7-1.3,10.68-2.77,5.42-2.19,8.11-6.67,8.35-12.53,0.64-15.95-17.35-32.78-33.16-31.05-11.38,1.24-17.87,10.35-14.57,21.31,3.46,11.52,11.38,19.32,22.38,24C152.13,574,154.06,573.93,156.83,574.38Zm40-10.63c-14.85-.2-23,11.61-16.32,24.89,3,6,8,11.33,13.05,16,6.88,6.43,15.36,6.43,23.88,3.26,6.17-2.3,9.44-7.26,9.42-13.87C226.79,579.62,211.26,563.94,196.81,563.75Zm64-28.66c13.29-.26,20.51-7.09,19.09-18.06-1.66-12.78-14.14-25.72-26.78-27.77-11.43-1.85-21.06,4.84-21.72,15.09C230.54,517.83,247.3,535.35,260.81,535.08ZM237.2,463.9c3.16-.43,5.84-0.59,8.42-1.18,8.57-2,13.1-8.23,12.28-16.72-1.35-13.86-15.43-27.61-29.26-28.56-14-1-22.71,10.39-17.72,23.57,3.77,10,10.89,17,20.49,21.44C233.31,463.33,235.55,463.5,237.2,463.9ZM133,501.75c14-1,21.49-8.11,19.84-19.5-1.69-11.69-13.18-24.42-24.78-26.82-7.47-1.54-14.83-.91-20.08,5.54s-4.16,13.69-.64,20.62a37.39,37.39,0,0,0,15.23,16.07C125.8,499.47,129.51,500.42,133,501.75Zm26.42-38.34c3.91-.9,7.77-1.34,11.28-2.68,6.43-2.46,9.63-8.3,8.92-15.14-1.3-12.63-13-25.9-25.54-28.32-7.32-1.41-14.48-.63-19.55,5.71s-4.18,13.34-.76,20.18a39.07,39.07,0,0,0,18.08,18C154.18,462.26,156.86,462.66,159.42,463.41ZM287.6,501.72c14.12-1,21-7.82,19.5-19.67s-14-25.09-25.82-26.86c-7.56-1.14-14.8-.19-19.61,6.75-4.54,6.54-3.83,13.74.33,19.7s9.63,11.27,15.21,16.07C279.85,500,284.08,500.44,287.6,501.72Zm-98.95-75.08c3.76-.61,6.43-0.81,9-1.51,8.6-2.37,12.23-7.75,11.48-16.67C208,395.11,193.57,381,180.23,380.14c-14.89-.95-23.36,10.89-17.57,24.7a37.73,37.73,0,0,0,17.15,18.81C182.76,425.26,186.26,425.86,188.65,426.64ZM233.4,573.86c4.32-1.1,8.31-1.66,11.93-3.14,4.79-2,7.46-5.92,7.91-11.2,1.38-16.06-16.23-33.73-32.27-32.38-12.1,1-18.69,10.58-15.07,22.2,3,9.53,9.47,16.33,17.92,21.2C226.73,572.2,230.25,572.8,233.4,573.86Zm-52.32-36.3c3.17-.27,5.18-0.34,7.15-0.64,10.46-1.56,15.61-8.72,13.79-19.12-2.22-12.74-15.21-25-28-26.46-14.65-1.66-24,10.41-18.5,24.06,3.77,9.34,10.55,16.05,19.5,20.49C177.21,537,179.78,537.22,181.08,537.57Zm-75.66-.06c3.26-.26,5.1-0.3,6.9-0.57,10.58-1.63,16.16-9.4,13.47-19.72-3.19-12.24-10.93-20.85-23.06-24.81-7.77-2.54-15.4-1.61-21.06,4.86-5.88,6.72-4.7,14.37-.59,21.39C86.87,528.52,94.32,536.55,105.42,537.51ZM217.08,364.45c0-8.32-5.34-14.72-12.31-14.67-8.54.06-13.95,5.51-14,14.06,0,7.56,5.61,15.71,11,15.89C210.74,380,217,373.75,217.08,364.45Z" transform="translate(-57 -151)"/><path class="cls-3" d="M238.81,404.19c-4.05-3.61-9-6.64-11.87-11-2-3-1.73-7.85-1.44-11.81,0.27-3.74,2-7.35,2.89-11.08,1.63-7.12.41-13.24-5.24-18.65-3.14-3-5.05-7.35-7.23-11.25-0.45-.81,0-2.57.67-3.48q41.88-59.67,83.87-119.27a12.11,12.11,0,0,0,.9-2.25c32.05,50.26,70.57,90.07,132.57,100.32L397.75,363c-3-4.32-7.41-4.46-12-4.13l23.73-30.78L291.76,242.49l-59.35,81.84,85.73,62.74c-2,2-3.79,4.56-6.2,5.91-11.64,6.52-24.63,8.63-37.61,9.87C262.55,404,250.65,403.8,238.81,404.19ZM231.08,383c-0.46,7.11,3.26,12.07,9.47,12.6,6,0.52,10.9-4.14,11.39-11.16,0.28-4.11.27-8.26,0.16-12.39-0.1-4-4.84-9.26-9.06-8.92-3.83.31-8.81,0.25-10.1,5.74L232.2,371l-0.32,2.77-0.08,1.05L231.2,381Z" transform="translate(-57 -151)"/><path class="cls-4" d="M343,258l-1-1.05-1.9-2L339,253.88l-1.34-1.68,0.1,0.07-1.06-1.08v0.08l-2-2.09,0.11,0-1.18-1.11-34-40.88c7.24-9.62,14.22-19.46,21.82-28.78,4.25-5.21,7.17-12.36,14.94-13.63,4-.66,8.19-0.49,12.3-0.69,4.56,2.61,9.3,5,13.67,7.87q39.57,26.3,79,52.84a34.3,34.3,0,0,1,3.64,3.25c1.43,9.51,7.85,16.13,13.48,23.2,1,1.89,2,3.82,3.08,5.65,5.19,8.46,7.59,17.29,3.84,27-1,1.23-2.06,2.49-3.15,3.67q-10.81,11.75-21.65,23.47c-8.51-2-17-4.26-25.55-6-11.43-2.36-21.45-7.71-31.15-13.86l2.55-2.44h0.3L387,289l4.56,1.91,0.23-.13L392,290.9c2.82,3,6.14,3.81,10,2.18l4,0.16c2.7,2.18,10.77.77,13.91-2.44l-0.06.06,2.08-1.08,2-1,3-1.88,0,0.05L428,286h0l1.81-1.3-0.08.1,1.11-1h-0.08c3.37-.48,5.58-2,5.1-5.82l0.69-2c3.15-2.17,3.17-4.88,1.38-7.91-0.44-19.54-10.4-35.77-22.55-48.88-14.67-15.83-35-23.42-57.37-22.12-16.18.94-24.86,12.17-22.36,28.19,1.86,11.92,7,22.42,13.51,32.39L351,260h0l1.15,2,1.92,1.77,1,1.23v0l-2.36,2.39,0.05,0-1.1-1.05,0.08,0.07-1.08-1.06,0.07,0.07-1.11-1,0.07,0.06-4.1-4,0.12-.37-0.09.37-1-1,0.33-.19-0.31.23Z" transform="translate(-57 -151)"/><path class="cls-5" d="M341.59,450.07l9.3-13.3c20.43-28.18,40.64-56.51,61.39-84.45,8.41-11.33,18-21.82,27-32.65,5.27,3.7,6,8,2.37,11.94-33.52,36.23-61.23,76.75-87.73,118.2-27,42.22-53.66,84.66-81.43,126.36-12.24,18.39-27,35.08-40.31,52.79-3.46,4.61-7.14,5.91-12.35,4.21-2.36-.77-4.78-1.33-7.17-2,11.37-12.77,23.29-25.1,33.95-38.44,8.69-10.86,16-22.87,23.71-34.47q24-35.85,47.78-71.82c3.66-5.52,7.16-11.14,10.74-16.72C341.24,465.59,344.42,460.69,341.59,450.07Z" transform="translate(-57 -151)"/><path class="cls-6" d="M385.76,358.91c4.58-.32,9-0.19,12,4.13q-25.07,33.82-50.23,67.58c-0.7.94-3,1.68-4,1.23-8.19-3.65-15.44-1.36-22.81,2.58a166.43,166.43,0,0,1-19.84,8.94,10.2,10.2,0,0,1-7.64-.78c-19.37-11-37.73-23.55-54.42-38.41,11.85-.39,23.75-0.21,35.52-1.34,13-1.24,26-3.35,37.61-9.87,2.41-1.35,4.15-3.91,6.2-5.91,7.89,5.79,16,11.36,23.59,17.46,3.62,2.9,5.24,2.61,8.13-1.1C361.58,388.4,373.75,373.72,385.76,358.91Zm-66.89,63.54c-0.16-6.74-5.73-12.05-11.57-10.8a71.92,71.92,0,0,0-15.44,5.28c-5.09,2.4-6.76,8.17-4.65,13.16a10.51,10.51,0,0,0,12.69,6C304,435,308.1,433.53,312.1,432,316.6,430.18,318.51,426.48,318.87,422.46Z" transform="translate(-57 -151)"/><path class="cls-7" d="M274.14,243.06c-1.44,1.24-3.15,2.26-4.27,3.74-15.8,20.9-31.19,42.13-47.37,62.74-14.43,18.38-29.7,36.11-44.63,54.1q-24.15,29.09-48.38,58.12C108,447.37,92,476.5,75,505c-3.81,6.41-5.15,12.54-.41,19.39,5,7.22,9.23,15,13.66,22.55A26,26,0,0,1,90,552c-6.09-8.28-12.47-16.35-18.21-24.87-10.3-15.29-11-16-2-32.27,9.51-17.11,19.7-34.14,31.75-49.5,26.1-33.25,53.26-65.68,80.59-97.95,32.94-38.9,66.25-77.46,93.43-120.79,3.45-5.5,6.73-11.11,10-16.69,4.09-6.87,5.21-6.91,10.71.37L276.24,240l-1.2,2,0,0-1,1h0.1Z" transform="translate(-57 -151)"/><path class="cls-8" d="M113.17,627.91a77.36,77.36,0,0,1-22.54-21.65L89.91,605,90,605.09,88.91,603l0,0.05c-0.23-2.28-.3-4.6-0.71-6.85C85.7,582.51,91.87,575,105.62,575c1.82,0,3.65,0,5.47,0l-0.12-.06,2.92,0.95c11.82,2.19,20.7,9.06,28.39,17.83,2.08,6.43,4.57,12.77,6.17,19.32,3.09,12.66-2.33,19.46-15.24,19-5.54-.2-11-1.67-16.56-2.57l-2.46-1.11Zm8.49-18.81c2.37-2.75,5-4.8,4.68-5.64a8.06,8.06,0,0,0-4.69-4.32c-2.93-.78-4.84,1.43-4.28,4.31C117.68,605.1,119.56,606.44,121.67,609.1Z" transform="translate(-57 -151)"/><path class="cls-5" d="M458.52,251.27c-5.63-7.07-12-13.69-13.48-23.2,9.2,7.63,18.45,15.19,27.55,22.94,3.22,2.74,5.8,6.27,9.12,8.87,6.58,5.15,5.75,11.15.8,18-10.56,14.53-21.83,28.54-32.83,42.77l-9-9.55q10.83-11.73,21.65-23.47c1.09-1.19,2.1-2.45,3.15-3.67,5.62,1.78,10.13-.67,10.56-5.88,0.83-10.18-2.59-19.24-8.08-27.48C464.44,245.35,461.56,245.78,458.52,251.27Z" transform="translate(-57 -151)"/><path class="cls-9" d="M480.5,252.08l-7-7.54c14.93-19.09,29.27-37.55,43.77-55.87,4-5.09,7.91-.7,11.76.82-1,1.34-1.89,2.72-2.9,4Q503.31,222.8,480.5,252.08Z" transform="translate(-57 -151)"/><path class="cls-10" d="M534.13,192.89c6.2,5.87,6.68,6.19,2,13.07-10.29,15.26-21.06,30.2-31.73,45.2-3.54,5-7.36,9.77-11.28,15l-5.41-7.82c10.78-14.84,21.64-29.62,32.31-44.53C524.94,206.94,529.45,199.85,534.13,192.89Z" transform="translate(-57 -151)"/><path class="cls-11" d="M534.13,192.89c-4.68,7-9.19,14.05-14.07,20.88-10.67,14.91-21.53,29.7-32.31,44.53l-7.24-6.22q22.8-29.28,45.6-58.57c1-1.3,1.94-2.68,2.9-4Z" transform="translate(-57 -151)"/><path class="cls-7" d="M348.74,164.11c-4.1.2-8.27,0-12.3,0.69-7.78,1.27-10.69,8.42-14.94,13.63-7.61,9.32-14.58,19.16-21.82,28.78-8.71-10.75-9.08-7-.77-17,9.31-11.22,19.36-21.84,29.19-32.61,0.84-.92,2.85-1.83,3.76-1.44C337.58,158.62,343.13,161.43,348.74,164.11Z" transform="translate(-57 -151)"/><path class="cls-12" d="M116.66,629.45c5.52,0.9,11,2.37,16.56,2.57,12.91,0.46,18.34-6.35,15.24-19-1.6-6.55-4.08-12.89-6.17-19.32,9.52,8,16,17.53,15.85,30.48-0.08,5.34-2.61,8.82-8.1,10.42C138,638.11,126.93,636.72,116.66,629.45Z" transform="translate(-57 -151)"/><path class="cls-13" d="M111.1,575c-1.82,0-3.65,0-5.47,0-13.75,0-19.92,7.52-17.4,21.23,0.41,2.25.49,4.56,0.71,6.85a29.9,29.9,0,0,1-7.63-19.71c-0.15-6.55,4.25-11.16,11.4-11.08C98.84,572.36,105,574,111.1,575Z" transform="translate(-57 -151)"/><path class="cls-9" d="M535.81,186.12l-11-6.21c7.56-10.52,7.54-9.77,17.2-1.66Z" transform="translate(-57 -151)"/><path class="cls-10" d="M535.81,186.12l6.24-7.88c2.58,2.72,6.22,5,7.39,8.28,1,2.63-1,6.34-2,10.84Z" transform="translate(-57 -151)"/><path class="cls-2" d="M386.48,288.74l-2.55,2.44L352.75,267.3l2.36-2.39C364.28,274.54,374.48,282.83,386.48,288.74Z" transform="translate(-57 -151)"/><path class="cls-2" d="M345.63,260.35l4.1,4Z" transform="translate(-57 -151)"/><path class="cls-2" d="M334.78,249.18l2,2.09Z" transform="translate(-57 -151)"/><path class="cls-2" d="M340.12,255l1.9,2Z" transform="translate(-57 -151)"/><path class="cls-13" d="M113.9,575.86l-2.92-.95Z" transform="translate(-57 -151)"/><path class="cls-2" d="M343,258l1.62,1.4Z" transform="translate(-57 -151)"/><path class="cls-2" d="M337.7,252.2l1.34,1.68Z" transform="translate(-57 -151)"/><path class="cls-2" d="M275,242.07l1.2-2Z" transform="translate(-57 -151)"/><path class="cls-13" d="M88.91,603L90,605.09Z" transform="translate(-57 -151)"/><path class="cls-13" d="M89.91,605l0.72,1.28Z" transform="translate(-57 -151)"/><path class="cls-2" d="M349.66,264.29l1.11,1Z" transform="translate(-57 -151)"/><path class="cls-2" d="M350.7,265.24l1.08,1.06Z" transform="translate(-57 -151)"/><path class="cls-2" d="M351.7,266.23l1.1,1.05Z" transform="translate(-57 -151)"/><path class="cls-2" d="M336.73,251.19l1.06,1.08Z" transform="translate(-57 -151)"/><path class="cls-2" d="M274,243.07l1-1Z" transform="translate(-57 -151)"/><path class="cls-2" d="M333.71,248.09l1.18,1.11Z" transform="translate(-57 -151)"/><path class="cls-2" d="M344.64,259.36l1,1Z" transform="translate(-57 -151)"/><path class="cls-12" d="M113.17,627.91l1,0.42Z" transform="translate(-57 -151)"/><path class="cls-14" d="M209.14,500c-3.11-1-6.6-1.65-9.55-3.26A37.23,37.23,0,0,1,182,477c-4.9-12.85,2.73-23.73,16.5-23.81,14.75-.09,30.71,16.06,30.53,30.86-0.07,6.11-2.77,10.68-8.41,12.94C217.17,498.4,213.34,498.92,209.14,500ZM194.92,486L196,487l4.46,3.53c7.27,6,16.73,5.91,21.76-.27,4.38-5.39,2-15.86-4.75-20.76L210,463c-3.2-1.62-6.24-3.81-9.63-4.74-7.88-2.16-14.4,2.89-14.36,11.11,0,7,3.37,12.53,8.94,16.72Z" transform="translate(-57 -151)"/><path class="cls-14" d="M156.83,574.38c-2.77-.45-4.71-0.4-6.33-1.08-11-4.63-18.92-12.43-22.38-24-3.3-11,3.2-20.07,14.57-21.31,15.81-1.73,33.8,15.11,33.16,31.05-0.23,5.86-2.93,10.34-8.35,12.53C163.88,573.08,159.87,573.62,156.83,574.38ZM142.92,562l1.08,0.95,4.44,2.6c4.56,4.51,10,4.6,15.54,2.67,6.24-2.17,7.39-7.14,7.16-13.13s-4-9.08-7.94-12.33l-6.08-4.86a69,69,0,0,0-7.24-4.13c-4.66-2-9.53-2.63-13.43,1.43s-5.23,9.27-2.63,14.26c2.38,4.56,6,8.44,9.15,12.62Z" transform="translate(-57 -151)"/><path class="cls-14" d="M196.81,563.75c14.45,0.2,30,15.88,30,30.3,0,6.61-3.25,11.57-9.42,13.87-8.51,3.17-17,3.17-23.88-3.26-5-4.68-10-10-13.05-16C173.81,575.36,182,563.54,196.81,563.75Zm0.71,36.83c3.65,3.75,8.32,4.71,13.24,4.52,5.37-.2,10.38-4.1,11.09-8.46,1.23-7.54-.65-13.83-7.6-17.94l-6.07-5c-3.05-1.6-5.94-3.72-9.18-4.71-9.38-2.87-16.71,3.68-15.1,13.42a21.59,21.59,0,0,0,9.23,14.53Z" transform="translate(-57 -151)"/><path class="cls-14" d="M260.81,535.08c-13.5.26-30.26-17.25-29.4-30.73,0.65-10.25,10.29-16.94,21.72-15.09,12.64,2,25.12,15,26.78,27.77C281.32,528,274.1,534.82,260.81,535.08Zm-15.62-14.14,6.36,5.48c7.47,5.85,17.3,5.62,21.86-.5,4.33-5.82,1.66-16.51-5.27-21.12l-7-5.88c-3.53-1.69-6.9-4-10.62-4.94-7-1.69-12.38,2-13.37,9.09C236.13,510.48,239.23,516.45,245.18,520.94Z" transform="translate(-57 -151)"/><path class="cls-15" d="M237.2,463.9c-1.65-.4-3.88-0.57-5.79-1.45C221.81,458,214.68,451,210.91,441c-5-13.17,3.67-24.54,17.72-23.57,13.83,1,27.91,14.7,29.26,28.56,0.83,8.49-3.7,14.76-12.28,16.72C243,463.31,240.36,463.47,237.2,463.9ZM224.88,451l1.1,1.52,2.59,1.89c3.26,1.49,6.38,3.52,9.8,4.36,6.05,1.48,13.05-2.57,14.43-7.72,2-7.6-.06-13.13-6.85-18.05l-6.3-5.23c-3.46-1.8-6.74-4.22-10.41-5.28-7.86-2.28-14.39,2.8-14.3,11,0.08,7.51,3.68,13.39,10,17.54Z" transform="translate(-57 -151)"/><path class="cls-14" d="M133,501.75c-3.49-1.33-7.2-2.28-10.42-4.08a37.39,37.39,0,0,1-15.23-16.07c-3.51-6.93-4.69-14.07.64-20.62s12.61-7.09,20.08-5.54c11.6,2.4,23.08,15.13,24.78,26.82C154.49,493.64,147,500.76,133,501.75ZM119.85,488l1.2,1.79,5,3c2.5,1.1,4.91,2.71,7.52,3.18,6.28,1.14,13.34-2.38,14.21-7.32,1.27-7.2,1.64-12.92-6.86-18.47l-6.48-5.34c-3.35-1.71-6.54-4-10.09-5C116.86,457.72,111,462,110,469.56c-0.84,6.36,3.77,15,9.89,18.63Z" transform="translate(-57 -151)"/><path class="cls-1" d="M159.42,463.41c-2.57-.75-5.25-1.15-7.56-2.29a39.07,39.07,0,0,1-18.08-18c-3.42-6.84-4.35-13.78.76-20.18s12.23-7.13,19.55-5.71c12.51,2.42,24.24,15.69,25.54,28.32,0.7,6.84-2.49,12.68-8.92,15.14C167.19,462.07,163.34,462.51,159.42,463.41ZM146.92,451l1,0.91L151,454a29.93,29.93,0,0,0,4.52,2.87c11,4.56,20.17-2,19.44-13.79-0.35-5.59-4.18-8.69-8.09-11.78L161,426.83c-2.85-1.6-5.53-3.67-8.57-4.72-9.74-3.37-17.53,3.51-15.61,13.71A22.23,22.23,0,0,0,146,450.07l0,0,1.06,1.07Z" transform="translate(-57 -151)"/><path class="cls-14" d="M287.6,501.72c-3.52-1.28-7.75-1.73-10.4-4-5.57-4.8-11-10.07-15.21-16.07s-4.87-13.16-.33-19.7c4.82-6.93,12-7.88,19.61-6.75,11.79,1.77,24.29,15,25.82,26.86S301.72,500.69,287.6,501.72Zm1.22-36.81c-3.17-1.67-6.16-3.92-9.53-4.9-9.55-2.77-17.49,4.71-14.42,14.2,1.72,5.31,6,9.77,9.18,14.61l5.49,3.56a15.3,15.3,0,0,0,17.51,2c4.85-2.67,7.19-6.95,5.5-13.52-0.94-3.64-4.28-6.66-6.54-10Z" transform="translate(-57 -151)"/><path class="cls-15" d="M188.65,426.64c-2.39-.78-5.89-1.38-8.83-3a37.73,37.73,0,0,1-17.15-18.81c-5.8-13.81,2.67-25.64,17.57-24.7,13.34,0.85,27.74,15,28.87,28.32,0.75,8.92-2.87,14.3-11.48,16.67C195.08,425.83,192.41,426,188.65,426.64Zm-8.09-9.22c3.75,1.49,7.38,3.66,11.26,4.28,4.89,0.79,11.08-3.59,12.23-7.54,2.2-7.54-.08-13.74-6.82-18.49l-6.92-5.72c-3.2-1.62-6.25-3.81-9.64-4.73-8.29-2.27-15.1,3.39-14.49,12,0.46,6.49,3.66,11.74,8.86,15.71Z" transform="translate(-57 -151)"/><path class="cls-15" d="M233.4,573.86c-3.15-1.06-6.67-1.66-9.57-3.33-8.45-4.87-15-11.67-17.92-21.2-3.62-11.62,3-21.18,15.07-22.2,16-1.35,33.65,16.32,32.27,32.38-0.45,5.28-3.12,9.24-7.91,11.2C241.71,572.2,237.72,572.77,233.4,573.86Zm-13.54-13.8,2,2.33,2.81,1.86c1.93,1.14,3.74,2.63,5.81,3.37,11,3.93,19.83-2.55,18-14-0.66-4.11-4.92-7.64-7.53-11.44l-6.55-5.27c-3.52-1.67-6.89-4-10.6-4.86-6.44-1.57-10.8,1.38-12.91,7.71-2.18,6.56,2.25,16.59,9,20.41Z" transform="translate(-57 -151)"/><path class="cls-15" d="M181.08,537.57c-1.31-.34-3.88-0.59-6-1.66-9-4.44-15.73-11.15-19.5-20.49-5.51-13.66,3.85-25.72,18.5-24.06,12.78,1.44,25.77,13.72,28,26.46,1.81,10.4-3.33,17.56-13.79,19.12C186.26,537.22,184.26,537.29,181.08,537.57Zm9.15-30.89L183.32,501c-2.9-1.51-5.66-3.48-8.73-4.43-9.44-2.91-17.14,4.29-15,14a22.78,22.78,0,0,0,9.47,14.4l4.46,3.55c2,1.15,3.82,2.64,5.93,3.39,11.41,4.05,20.66-3.45,18-15.13C196.6,513,192.73,510,190.24,506.67Z" transform="translate(-57 -151)"/><path class="cls-15" d="M105.42,537.51c-11.1-1-18.55-9-24.33-18.85-4.11-7-5.3-14.67.59-21.39,5.66-6.47,13.29-7.39,21.06-4.86,12.13,4,19.87,12.56,23.06,24.81,2.69,10.32-2.89,18.09-13.47,19.72C110.52,537.21,108.68,537.25,105.42,537.51ZM107.24,501c-3.07-1.55-6-3.6-9.25-4.55-7.54-2.23-13.87,2-14.6,9.88-0.63,6.82,2.38,12.39,7.74,16.65l5.76,5.21c2.42,1.35,4.71,3.11,7.29,4,10.5,3.45,18.83-3.46,17.56-14.38-0.6-5.18-3.68-8.72-7.87-11.46Z" transform="translate(-57 -151)"/><path class="cls-14" d="M341.59,450.07c2.84,10.62-.35,15.52-12.77,19.66-6.7-.28-12.7-2.1-14.83-9.26-0.8-2.69-.87-6.36.35-8.76C320.09,440.38,333.3,439.74,341.59,450.07Zm-3.8,3.43a15,15,0,0,0-1.49-3.75c-2.47-3.62-8.77-3.94-14.22-.91-3.56,2-5.65,7.73-3.88,11.33a8.33,8.33,0,0,0,3,3.24C327.49,467.32,337.56,461.8,337.78,453.49Z" transform="translate(-57 -151)"/><path class="cls-16" d="M217.08,364.45c0,9.3-6.34,15.59-15.32,15.29-5.36-.18-11-8.34-11-15.89,0-8.55,5.43-14,14-14.06C211.74,349.73,217.12,356.13,217.08,364.45Zm-4.79.64c0-5.79-4.2-10.55-9.56-10.75-4.44-.17-7.81,3.95-7.88,9.64-0.07,6,4,10.89,9.2,11C208.66,375.14,212.25,370.82,212.29,365.09Z" transform="translate(-57 -151)"/><path class="cls-17" d="M385.76,358.91c-12,14.81-24.18,29.49-35.9,44.52-2.89,3.71-4.51,4-8.13,1.1-7.63-6.11-15.7-11.68-23.59-17.46l-85.73-62.74,59.35-81.84,117.73,85.64ZM245.11,326l4.75,4a49.12,49.12,0,0,0,4.38,4q30,21.62,60,43.15c10.5,7.57,20.93,15.23,31,22.55,9.82-12.39,19.72-24.49,29.18-36.91,7.25-9.52,14-19.42,20.85-29.25,0.75-1.08.59-2.81,0.84-4.24-2.82-2.76-5.39-5.85-8.51-8.21q-45.38-34.44-90.92-68.67c-2.36-1.78-4.1-1.75-6.1,1.11q-23.24,33.22-46.83,66.2C241.81,322.48,241.7,324.56,245.11,326Z" transform="translate(-57 -151)"/><path class="cls-17" d="M232.94,368.87c1.29-5.49,6.27-5.42,10.1-5.74,4.21-.34,9,4.95,9.06,8.92,0.1,4.13.12,8.27-.16,12.39-0.48,7-5.38,11.68-11.39,11.16-6.2-.54-9.92-5.49-9.47-12.6l0.12-2,0.6-6.24,0.08-1.05L232.2,371ZM250,379.95c0-3,.12-4.87,0-6.68a7.55,7.55,0,0,0-8-7.08c-4,.09-7.41,1.52-7.93,6.23-0.4,3.62-.87,7.25-1,10.89a8.32,8.32,0,0,0,16.52,1.86A36.19,36.19,0,0,0,250,379.95Z" transform="translate(-57 -151)"/><path class="cls-18" d="M231.2,381l-0.12,2Z" transform="translate(-57 -151)"/><path class="cls-18" d="M232.94,368.87L232.2,371Z" transform="translate(-57 -151)"/><path class="cls-18" d="M231.88,373.73l-0.08,1.05Z" transform="translate(-57 -151)"/><path class="cls-16" d="M386.48,288.74c-12-5.91-22.2-14.2-31.37-23.84v0l-1-1.23L352.17,262,351,260h0l-1.87-2.43c-6.48-10-11.65-20.48-13.51-32.39-2.5-16,6.18-27.25,22.36-28.19,22.41-1.3,42.7,6.29,57.37,22.12,12.15,13.11,22.11,29.34,22.55,48.88l-1.38,7.91-0.69,2-5.1,5.82h0.08l-1.11,1,0.08-.1L428,286h0l-1.09.95,0-.05-3,1.88-2,1-2.08,1.08,0.06-.06L406,293.24l-4-.16-10-2.18-0.21-.17-0.24.13L387,289l-0.21-.22h-0.3Zm-34.75-36.67,1.15,1.9a77,77,0,0,0,28.38,26.51c4.57,2.48,9.81,3.72,14.74,5.52,6.88,3,13.93,2.57,20.89.58a21.41,21.41,0,0,0,15.84-22.63C431.52,250,425,238.38,416,228a64,64,0,0,0-29.39-23.07,42.52,42.52,0,0,0-28.51-4c-12.62,2.61-19.44,12-17.77,24.74a53.69,53.69,0,0,0,11.51,26.6Z" transform="translate(-57 -151)"/><path class="cls-19" d="M458.52,251.27c3-5.49,5.92-5.92,9.39-.7,5.49,8.25,8.92,17.3,8.08,27.48-0.43,5.21-4.94,7.66-10.56,5.88,3.75-9.72,1.35-18.55-3.84-27C460.48,255.1,459.54,253.16,458.52,251.27Z" transform="translate(-57 -151)"/><path class="cls-2" d="M406,293.24l13.91-2.43C416.77,294,408.7,295.42,406,293.24Z" transform="translate(-57 -151)"/><path class="cls-2" d="M392,290.9l10,2.18C398.14,294.71,394.82,293.94,392,290.9Z" transform="translate(-57 -151)"/><path class="cls-2" d="M430.75,283.76l5.1-5.82C436.33,281.79,434.11,283.28,430.75,283.76Z" transform="translate(-57 -151)"/><path class="cls-2" d="M436.54,275.89l1.38-7.91C439.71,271,439.69,273.72,436.54,275.89Z" transform="translate(-57 -151)"/><path class="cls-2" d="M423.9,288.77l3-1.88Z" transform="translate(-57 -151)"/><path class="cls-2" d="M387,289l4.55,1.91Z" transform="translate(-57 -151)"/><path class="cls-2" d="M349.14,257.55L351,260Z" transform="translate(-57 -151)"/><path class="cls-2" d="M419.86,290.87l2.08-1.08Z" transform="translate(-57 -151)"/><path class="cls-2" d="M428,286l1.81-1.3Z" transform="translate(-57 -151)"/><path class="cls-2" d="M351,260l1.15,2Z" transform="translate(-57 -151)"/><path class="cls-2" d="M354.09,263.72l1,1.23Z" transform="translate(-57 -151)"/><path class="cls-2" d="M426.89,286.94L428,286Z" transform="translate(-57 -151)"/><path class="cls-2" d="M429.72,284.79l1.11-1Z" transform="translate(-57 -151)"/><path class="cls-18" d="M318.87,422.46c-0.36,4-2.27,7.73-6.77,9.5-4,1.58-8.08,3-12.21,4.19a10.51,10.51,0,0,1-12.69-6c-2.1-5-.44-10.76,4.65-13.16a71.92,71.92,0,0,1,15.44-5.28C313.14,410.41,318.7,415.72,318.87,422.46Zm-3.6.18a8.1,8.1,0,0,0-10-8.18,60.06,60.06,0,0,0-10.36,3.59,8.13,8.13,0,0,0-3,12.95c5.28,5.76,10.74,1.53,16.13,0C312.29,429.81,315.09,427.35,315.27,422.64Z" transform="translate(-57 -151)"/><path class="cls-18" d="M121.67,609.1c-2.1-2.65-4-4-4.3-5.64-0.55-2.88,1.35-5.09,4.28-4.31a8.06,8.06,0,0,1,4.69,4.32C126.68,604.3,124,606.35,121.67,609.1Z" transform="translate(-57 -151)"/><path class="cls-20" d="M210,463l7.52,6.48c0.37,1.91.66,3.85,1.14,5.73,2.34,9.21-1.77,14.68-11.2,14.9-2.32.05-4.63,0.27-6.95,0.41L196,487l-1.13-.91,0,0c-1-3.27-2.21-6.51-3.1-9.82-1.73-6.51.68-10.77,7.27-12.22C202.65,463.27,206.36,463.31,210,463Z" transform="translate(-57 -151)"/><path class="cls-13" d="M210,463c-3.63.33-7.34,0.28-10.87,1.06-6.59,1.44-9,5.7-7.27,12.22,0.88,3.31,2.06,6.55,3.1,9.82-5.57-4.19-8.9-9.75-8.94-16.72,0-8.21,6.48-13.27,14.36-11.11C203.75,459.18,206.79,461.37,210,463Z" transform="translate(-57 -151)"/><path class="cls-21" d="M200.5,490.49c2.32-.14,4.63-0.35,6.95-0.41,9.43-.22,13.54-5.69,11.2-14.9-0.48-1.88-.77-3.82-1.14-5.73,6.74,4.9,9.13,15.37,4.75,20.76C217.23,496.4,207.77,496.52,200.5,490.49Z" transform="translate(-57 -151)"/><path class="cls-13" d="M194.92,486L196,487Z" transform="translate(-57 -151)"/><path class="cls-20" d="M148.45,565.55l-4.44-2.6-1.08-.95,0,0.08c-1.38-3.35-2.95-6.64-4.11-10.06-2.47-7.25-.07-11.74,7.36-13.28,3.54-.73,7.26-0.59,10.9-0.84l6.08,4.86a60.67,60.67,0,0,1,2.1,6c2.46,10.26-.28,15.15-10.48,16.2C152.7,565.2,150.57,565.36,148.45,565.55Z" transform="translate(-57 -151)"/><path class="cls-13" d="M157.12,537.9c-3.64.25-7.36,0.11-10.9,0.84-7.43,1.54-9.84,6-7.36,13.28,1.17,3.42,2.73,6.71,4.11,10.06-3.1-4.18-6.77-8.07-9.15-12.62-2.6-5-1.26-10.21,2.63-14.26s8.77-3.43,13.43-1.43A69,69,0,0,1,157.12,537.9Z" transform="translate(-57 -151)"/><path class="cls-21" d="M148.45,565.55c2.13-.19,4.26-0.35,6.38-0.57,10.2-1.05,12.94-5.94,10.48-16.2a60.67,60.67,0,0,0-2.1-6c4,3.25,7.71,6.47,7.94,12.33s-0.91,11-7.16,13.13C158.4,570.15,153,570.06,148.45,565.55Z" transform="translate(-57 -151)"/><path class="cls-13" d="M142.92,562l1.08,0.95Z" transform="translate(-57 -151)"/><path class="cls-20" d="M208.19,573.68l6.07,5c0.72,2.35,1.48,4.69,2.16,7,2.32,8.08-.37,12.82-8.68,14.43-3.31.64-6.81,0.29-10.22,0.4l-4.38-3.66c-1.09-2.93-2.26-5.83-3.24-8.8-2.59-7.83.26-12.73,8.33-14A91.17,91.17,0,0,1,208.19,573.68Z" transform="translate(-57 -151)"/><path class="cls-13" d="M208.19,573.68a91.17,91.17,0,0,0-9.95.48c-8.07,1.24-10.92,6.13-8.33,14,1,3,2.15,5.87,3.24,8.8a21.59,21.59,0,0,1-9.23-14.53c-1.62-9.74,5.72-16.29,15.1-13.42C202.25,570,205.14,572.07,208.19,573.68Z" transform="translate(-57 -151)"/><path class="cls-21" d="M197.52,600.58c3.41-.1,6.91.24,10.22-0.4,8.31-1.61,11-6.35,8.68-14.43-0.68-2.36-1.44-4.7-2.16-7,6.95,4.11,8.83,10.4,7.6,17.94-0.71,4.36-5.72,8.25-11.09,8.46C205.84,605.29,201.17,604.32,197.52,600.58Z" transform="translate(-57 -151)"/><path class="cls-20" d="M251.54,526.42l-6.36-5.48c-0.81-3-1.67-6-2.42-9-1.66-6.62.55-10.59,7.17-12,3.65-.78,7.48-0.74,11.23-1.06l7,5.88c0.49,2.08.92,4.17,1.47,6.23,2.39,8.9-1.5,14.42-10.61,15C256.5,526.16,254,526.29,251.54,526.42Z" transform="translate(-57 -151)"/><path class="cls-13" d="M261.15,498.93c-3.75.33-7.57,0.29-11.23,1.06-6.62,1.4-8.83,5.37-7.17,12,0.75,3,1.61,6,2.42,9-5.95-4.49-9-10.46-8-17.86,1-7.09,6.39-10.78,13.37-9.09C254.26,494.89,257.63,497.23,261.15,498.93Z" transform="translate(-57 -151)"/><path class="cls-21" d="M251.54,526.42c2.48-.14,5-0.27,7.44-0.41,9.11-.55,13-6.07,10.61-15-0.55-2.06-1-4.15-1.47-6.23,6.93,4.61,9.6,15.3,5.27,21.12C268.84,532,259,532.27,251.54,526.42Z" transform="translate(-57 -151)"/><path class="cls-20" d="M239.65,427.8L246,433a43.46,43.46,0,0,0,1.24,5.22c3.45,9.4-.82,15.74-10.74,15.88-2.63,0-5.25.21-7.88,0.32L226,452.56l-1.1-1.52,0.06,0.07c-1.47-3.66-3.2-7.24-4.36-11-1.66-5.33.13-9.54,5.46-11C230.36,427.88,235.1,428.17,239.65,427.8Z" transform="translate(-57 -151)"/><path class="cls-13" d="M239.65,427.8c-4.55.37-9.29,0.08-13.61,1.28-5.33,1.49-7.12,5.7-5.46,11,1.17,3.75,2.89,7.33,4.36,11-6.31-4.15-9.91-10-10-17.54-0.09-8.24,6.44-13.33,14.3-11C232.91,423.59,236.19,426,239.65,427.8Z" transform="translate(-57 -151)"/><path class="cls-21" d="M228.57,454.45c2.63-.11,5.25-0.29,7.88-0.32,9.92-.14,14.19-6.48,10.74-15.88A43.46,43.46,0,0,1,246,433c6.79,4.92,8.89,10.46,6.85,18.05-1.38,5.15-8.38,9.21-14.43,7.72C235,458,231.83,455.94,228.57,454.45Z" transform="translate(-57 -151)"/><path class="cls-13" d="M224.88,451l1.1,1.52Z" transform="translate(-57 -151)"/><path class="cls-20" d="M126,492.83l-5-3-1.2-1.79,0,0.15c-1.35-3.33-2.9-6.58-4-10-2.06-6.42.53-11.19,7.18-12.61,3.66-.78,7.54-0.5,11.32-0.71l6.48,5.34q0.8,2.86,1.6,5.71c2.83,10.05-.91,15.35-11.26,16C129.46,492.1,127.74,492.54,126,492.83Z" transform="translate(-57 -151)"/><path class="cls-13" d="M134.39,464.89c-3.78.2-7.67-.08-11.32,0.71-6.66,1.42-9.24,6.19-7.18,12.61,1.09,3.41,2.65,6.66,4,10-6.13-3.6-10.73-12.26-9.89-18.63,1-7.61,6.87-11.84,14.31-9.69C127.85,460.9,131,463.18,134.39,464.89Z" transform="translate(-57 -151)"/><path class="cls-21" d="M126,492.83c1.73-.29,3.46-0.73,5.2-0.84,10.35-.7,14.09-6,11.26-16q-0.8-2.86-1.6-5.71c8.5,5.55,8.12,11.27,6.86,18.47-0.87,4.94-7.93,8.45-14.21,7.32C130.91,495.54,128.51,493.93,126,492.83Z" transform="translate(-57 -151)"/><path class="cls-13" d="M119.85,488l1.2,1.79Z" transform="translate(-57 -151)"/><path class="cls-20" d="M151,454l-3.08-2.08-1-.91,0.07,0.1L145.93,450l0,0c-0.89-2.44-1.64-4.94-2.68-7.32-3.7-8.45-.35-14.64,8.76-15.71,3-.35,6-0.16,9-0.21l5.86,4.47c0.81,2.68,1.73,5.33,2.41,8,2,8-1.1,13-9.16,14.37C157.15,454.21,154,453.92,151,454Z" transform="translate(-57 -151)"/><path class="cls-13" d="M161,426.83c-3,.06-6-0.13-9,0.21-9.11,1.07-12.46,7.26-8.76,15.71,1,2.38,1.79,4.88,2.68,7.32a22.23,22.23,0,0,1-9.13-14.25c-1.92-10.2,5.87-17.08,15.61-13.71C155.47,423.16,158.16,425.23,161,426.83Z" transform="translate(-57 -151)"/><path class="cls-21" d="M151,454c3-.07,6.15.22,9.12-0.29,8.06-1.38,11.16-6.39,9.16-14.37-0.68-2.71-1.6-5.36-2.41-8,3.91,3.09,7.74,6.19,8.09,11.78,0.73,11.8-8.41,18.35-19.44,13.79A29.93,29.93,0,0,1,151,454Z" transform="translate(-57 -151)"/><path class="cls-13" d="M145.93,450l1.06,1.07Z" transform="translate(-57 -151)"/><path class="cls-13" d="M146.92,451l1,0.91Z" transform="translate(-57 -151)"/><path class="cls-20" d="M279.54,492.39l-5.49-3.56c-1.24-3.37-2.67-6.69-3.67-10.13-2.14-7.38.15-11.52,7.64-13.15,3.48-.76,7.19-0.46,10.8-0.64l7.19,6c0.41,2.41.73,4.84,1.26,7.23,1.6,7.23-.75,11.39-8,13.16C286.13,492.08,282.79,492.06,279.54,492.39Z" transform="translate(-57 -151)"/><path class="cls-13" d="M288.82,464.91c-3.61.18-7.32-.12-10.8,0.64-7.49,1.64-9.78,5.77-7.64,13.15,1,3.44,2.43,6.76,3.67,10.13-3.14-4.84-7.46-9.31-9.18-14.61-3.07-9.49,4.86-17,14.42-14.2C282.66,461,285.65,463.24,288.82,464.91Z" transform="translate(-57 -151)"/><path class="cls-21" d="M279.54,492.39c3.25-.33,6.59-0.31,9.74-1.08,7.24-1.77,9.59-5.93,8-13.16-0.53-2.39-.85-4.82-1.26-7.23,2.26,3.3,5.61,6.32,6.54,10,1.69,6.58-.65,10.85-5.5,13.52A15.3,15.3,0,0,1,279.54,492.39Z" transform="translate(-57 -151)"/><path class="cls-20" d="M190.32,389.95l6.92,5.72c0.59,2.37,1.19,4.75,1.78,7.12,2.13,8.7-2,14-11.08,14.26-2.46.07-4.92,0.24-7.38,0.37L175,412.9c-0.8-2.5-1.51-5-2.4-7.5-3-8.28-.37-13.06,8.3-14.63C184,390.21,187.19,390.21,190.32,389.95Z" transform="translate(-57 -151)"/><path class="cls-13" d="M190.32,389.95c-3.13.26-6.3,0.26-9.37,0.82-8.67,1.57-11.28,6.35-8.3,14.63,0.89,2.47,1.6,5,2.4,7.5-5.2-4-8.4-9.23-8.86-15.72-0.61-8.58,6.2-14.24,14.49-12C184.07,386.14,187.12,388.33,190.32,389.95Z" transform="translate(-57 -151)"/><path class="cls-21" d="M180.56,417.41c2.46-.13,4.92-0.3,7.38-0.37,9.08-.27,13.21-5.56,11.08-14.26-0.58-2.38-1.18-4.75-1.78-7.12,6.74,4.76,9,11,6.82,18.49-1.16,4-7.34,8.33-12.23,7.54C187.94,421.07,184.31,418.9,180.56,417.41Z" transform="translate(-57 -151)"/><path class="cls-20" d="M224.67,564.25l-2.81-1.86-2-2.33,0.05,0.08c-1.17-3.06-2.54-6.06-3.48-9.18-2.16-7.17.36-11.61,7.65-13.14,3.36-.7,6.87-0.65,10.32-0.94l6.55,5.27c0.76,2.68,1.62,5.33,2.27,8,1.93,8-2,13.26-10.14,13.81C230.29,564.19,227.48,564.17,224.67,564.25Z" transform="translate(-57 -151)"/><path class="cls-13" d="M234.4,536.88c-3.44.29-7,.24-10.32,0.94-7.29,1.53-9.81,6-7.65,13.14,0.94,3.13,2.31,6.13,3.48,9.18-6.77-3.82-11.2-13.85-9-20.41,2.11-6.33,6.47-9.28,12.91-7.71C227.51,532.92,230.88,535.21,234.4,536.88Z" transform="translate(-57 -151)"/><path class="cls-21" d="M224.67,564.25c2.8-.08,5.61-0.07,8.41-0.25,8.17-.55,12.07-5.85,10.14-13.81-0.65-2.7-1.51-5.36-2.27-8,2.61,3.8,6.87,7.33,7.53,11.44,1.84,11.49-7,18-18,14C228.41,566.89,226.6,565.4,224.67,564.25Z" transform="translate(-57 -151)"/><path class="cls-13" d="M219.86,560.06l2,2.33Z" transform="translate(-57 -151)"/><path class="cls-20" d="M173.54,528.46l-4.46-3.55c-1.26-3.38-2.72-6.7-3.72-10.16-2-7,.52-11.27,7.64-12.74a93.68,93.68,0,0,1,10.33-1l6.91,5.69c0.67,2.51,1.4,5,2,7.53,2.08,8.47-2,13.68-10.85,13.89C178.78,528.15,176.16,528.33,173.54,528.46Z" transform="translate(-57 -151)"/><path class="cls-13" d="M183.32,501A93.68,93.68,0,0,0,173,502c-7.12,1.47-9.65,5.75-7.64,12.74,1,3.46,2.46,6.78,3.72,10.16a22.78,22.78,0,0,1-9.47-14.4c-2.15-9.66,5.55-16.86,15-14C177.67,497.5,180.42,499.48,183.32,501Z" transform="translate(-57 -151)"/><path class="cls-21" d="M173.54,528.46c2.62-.13,5.24-0.31,7.87-0.37,8.83-.21,12.92-5.41,10.85-13.89-0.62-2.52-1.34-5-2-7.53,2.49,3.33,6.37,6.34,7.21,10,2.67,11.68-6.58,19.18-18,15.13C177.36,531.1,175.51,529.61,173.54,528.46Z" transform="translate(-57 -151)"/><path class="cls-20" d="M96.89,528.14l-5.76-5.21c-0.52-2.24-.93-4.51-1.58-6.71-2.57-8.73-.48-12.54,8.33-14.35a84.43,84.43,0,0,1,9.36-.91l6.64,5.31c0.71,2.35,1.37,4.71,2.13,7,2.8,8.6-1.27,14.53-10.2,14.77C102.83,528.14,99.86,528.12,96.89,528.14Z" transform="translate(-57 -151)"/><path class="cls-13" d="M107.24,501a84.43,84.43,0,0,0-9.36.91c-8.81,1.82-10.9,5.62-8.33,14.35,0.65,2.2,1.06,4.47,1.58,6.71-5.36-4.26-8.37-9.83-7.74-16.65,0.73-7.89,7.05-12.1,14.6-9.88C101.24,497.36,104.17,499.4,107.24,501Z" transform="translate(-57 -151)"/><path class="cls-21" d="M96.89,528.14c3,0,5.94,0,8.91-.08,8.94-.24,13-6.17,10.2-14.77-0.76-2.33-1.42-4.69-2.13-7,4.19,2.75,7.27,6.29,7.87,11.46,1.27,10.92-7.07,17.83-17.56,14.38C101.6,531.25,99.31,529.48,96.89,528.14Z" transform="translate(-57 -151)"/><path class="cls-22" d="M337.78,453.49c-0.22,8.3-10.29,13.82-16.63,9.91a8.33,8.33,0,0,1-3-3.24c-1.77-3.6.31-9.35,3.88-11.33,5.44-3,11.74-2.71,14.22.91A15,15,0,0,1,337.78,453.49Z" transform="translate(-57 -151)"/><path class="cls-22" d="M212.29,365.09c0,5.73-3.63,10.05-8.25,9.92-5.2-.15-9.27-5-9.2-11,0.07-5.69,3.44-9.81,7.88-9.64C208.09,354.53,212.32,359.3,212.29,365.09Z" transform="translate(-57 -151)"/><path class="cls-23" d="M396.12,329.32c-0.26,1.43-.09,3.16-0.84,4.24-6.84,9.83-13.6,19.73-20.85,29.25-9.47,12.43-19.36,24.53-29.18,36.91-10-7.32-20.48-15-31-22.55q-30-21.61-60-43.15a49.09,49.09,0,0,1-4.38-4c3.57-.67,7.17-1.2,10.71-2,17.91-4.22,35.76-8.66,53.72-12.64,2.95-.65,6.83-1.84,9.77,1.85a100.05,100.05,0,0,0-8.11,7c-1.6,1.68-3.72,4.22-3.4,6s3.11,3.91,5.21,4.49a54.42,54.42,0,0,0,14.16,2.29c11.29,0,22.62-.11,33.85-1.1,7.49-.66,14.84-2.9,22.26-4.43Z" transform="translate(-57 -151)"/><path class="cls-24" d="M388,331.37c-7.41,1.53-14.77,3.77-22.26,4.43-11.23,1-22.56,1.13-33.85,1.1a54.42,54.42,0,0,1-14.16-2.29c-2.1-.58-4.88-2.69-5.21-4.49s1.81-4.29,3.4-6a100.05,100.05,0,0,1,8.11-7c-2.94-3.69-6.83-2.51-9.77-1.85-18,4-35.82,8.42-53.72,12.64-3.53.83-7.13,1.36-10.71,2l-4.75-4a13,13,0,0,0,1.87-1.62q17.6-22.3,35.16-44.63c4.49-5.69,9-11.32,13.64-17.08,1.59,1,2.74,1.64,3.8,2.41q34.07,25.17,68.1,50.39C374.57,320.63,381.24,326.07,388,331.37Z" transform="translate(-57 -151)"/><path class="cls-25" d="M388,331.37c-6.78-5.3-13.45-10.74-20.35-15.88q-34-25.29-68.1-50.39c-1.05-.78-2.21-1.41-3.8-2.41-4.6,5.75-9.15,11.39-13.64,17.08q-17.59,22.3-35.16,44.63a13,13,0,0,1-1.87,1.62c-3.41-1.45-3.3-3.53-1.35-6.26q23.5-33,46.83-66.2c2-2.86,3.74-2.88,6.1-1.11q45.49,34.29,90.92,68.67c3.12,2.37,5.69,5.46,8.51,8.21Z" transform="translate(-57 -151)"/><path class="cls-22" d="M250,379.95a36.19,36.19,0,0,1-.39,5.23,8.32,8.32,0,0,1-16.52-1.86c0.1-3.64.56-7.27,1-10.89,0.52-4.72,3.93-6.14,7.93-6.23a7.55,7.55,0,0,1,8,7.08C250.14,375.08,250,376.91,250,379.95Z" transform="translate(-57 -151)"/><path class="cls-26" d="M386.6,204.94A64,64,0,0,1,416,228c1.5,7,3.36,13.88,4.41,20.91,2.35,15.78-3.83,31-21.34,35.62A18,18,0,0,0,396,286c-4.93-1.8-10.17-3-14.74-5.52A77,77,0,0,1,352.88,254l-1.15-1.9,0.1,0.17c-1.07-4.31-2.36-8.58-3.16-12.94-2.87-15.53,3.47-28.17,19.72-32.12C374.29,205.74,380.52,205.65,386.6,204.94Zm-0.77,34.69c0.53-8.76-1.06-15.74-6.32-22.24C377.1,223.72,380,234.24,385.83,239.63Zm27.29,10.79c-3.92-4.8-15.69-7.17-20.86-4.2C396.87,250.77,407.76,253,413.12,250.42ZM368.2,263.25c8.73-2.76,16.49-10.93,16-16.44C377.19,250.32,371.62,254.85,368.2,263.25Z" transform="translate(-57 -151)"/><path class="cls-7" d="M396,286a18,18,0,0,1,3.07-1.45c17.51-4.59,23.69-19.83,21.34-35.62-1-7-2.92-13.94-4.41-20.91,9,10.37,15.52,22,16.74,35.93a21.41,21.41,0,0,1-15.84,22.63C409.93,288.56,402.89,289,396,286Z" transform="translate(-57 -151)"/><path class="cls-27" d="M386.6,204.94c-6.08.71-12.31,0.81-18.22,2.24-16.25,3.95-22.59,16.59-19.72,32.12,0.8,4.36,2.1,8.63,3.16,12.94a53.68,53.68,0,0,1-11.51-26.6c-1.67-12.74,5.15-22.13,17.77-24.74A42.52,42.52,0,0,1,386.6,204.94Z" transform="translate(-57 -151)"/><path class="cls-27" d="M351.73,252.07l1.15,1.9Z" transform="translate(-57 -151)"/><path class="cls-22" d="M315.27,422.64c-0.18,4.72-3,7.17-7.22,8.37-5.38,1.52-10.85,5.75-16.13,0a8.13,8.13,0,0,1,3-12.95,60.06,60.06,0,0,1,10.36-3.59A8.1,8.1,0,0,1,315.27,422.64Z" transform="translate(-57 -151)"/><path class="cls-16" d="M385.83,239.63c-5.85-5.39-8.74-15.91-6.32-22.24C384.77,223.89,386.36,230.87,385.83,239.63Z" transform="translate(-57 -151)"/><path class="cls-16" d="M413.12,250.42c-5.36,2.54-16.25.35-20.86-4.2C397.43,243.25,409.2,245.62,413.12,250.42Z" transform="translate(-57 -151)"/><path class="cls-16" d="M368.2,263.25c3.42-8.4,9-12.93,16-16.44C384.69,252.33,376.94,260.5,368.2,263.25Z" transform="translate(-57 -151)"/></svg>